<svg width="88" height="48" viewBox="0 0 88 48" fill="none" xmlns="http://www.w3.org/2000/svg">
<path d="M30.0802 38.3417C30.158 38.1768 30.2188 37.9889 30.2594 37.7867L31.3056 37.8676L31.738 37.2766C31.9784 37.434 32.0615 38.2174 32.6111 37.6633L32.8649 37.2805L35.0046 37.4459L35.333 36.9163C36.0386 36.7489 36.804 37.03 37.5626 36.9499L37.8664 36.46L41.3984 36.7331L41.8382 36.1566L42.4203 36.8399L43.0049 36.1497L49.0934 36.6205L49.5031 36L61.3576 36.9166L61.7874 37.6991L62.5909 37.0813L64.6206 37.2382L64.9849 37.7937C65.4619 38.2746 65.886 37.3777 66.3771 37.2769L66.7779 37.96L69.5468 38.1741L69.9398 37.594L70.1879 38.0711C70.235 38.0747 70.2702 38.244 70.3173 38.2476L76.0206 38.6886L76.4896 39.4879L77.1989 38.849L78.5836 38.9561L78.8845 39.5344L79.97 39.6183L80.3462 39.0646L80.7088 39.7032L81.4088 39.7573L81.8096 39.1639L82.4261 40.3771C82.8313 40.5472 83.2049 40.7564 83.5476 39.9504L85.3648 40.0909L85.7199 40.715C86.1023 40.8694 86.5106 40.6096 86.9563 41.0742L86.6158 41.7695L88 43.1669C86.9422 43.543 82.5348 43.2993 78.7516 42.6599L78.4964 42.1545L77.403 42.07L77.0185 42.6369L74.8708 42.4709L74.5166 41.8191L74.1638 42.3884C73.6696 42.4128 73.1755 42.3746 72.6849 42.2741L72.3994 41.7109L70.5663 41.5692L70.1835 42.0669L68.7988 41.9598C68.6563 41.7158 68.4851 41.5296 68.2977 41.4144C68.1098 41.2992 67.91 41.2578 67.712 41.293L67.3033 41.8858L65.1794 41.7216L64.7618 42.3553L62.2525 42.1613L61.9894 42.5988C61.9423 42.5952 61.8908 42.7577 61.8438 42.7541L50.406 41.8697L49.8995 42.5798L49.2087 41.8327C49.0411 41.7025 48.8532 41.6793 48.6768 41.7669C48.5008 41.8546 48.3472 42.0477 48.2434 42.313L38.9215 41.5923L38.4803 42.2241L37.0564 42.1141L36.7018 41.4762C36.5876 41.4223 36.467 41.4283 36.3547 41.4936C36.2425 41.5589 36.1435 41.6805 36.0701 41.8436C35.7663 42.3335 35.5396 41.9413 35.2931 41.395L34.8785 41.904L33.8873 41.8274L33.4225 42.4575L30.6063 42.2397L30.165 42.8717L26.6016 42.5961L26.1917 43.2305L22.9587 42.9805L22.6378 43.5246L21.5758 43.4424L21.1107 44.0864L20.8172 43.5226L19.3148 43.4064L18.9536 43.989L17.1521 43.8497L16.807 44.4196L14.6752 44.2548L14.2575 44.8885L12.818 44.7772L12.505 45.322L11.0497 45.2094C10.8937 45.461 10.811 45.6211 10.7132 45.7523C10.4272 46.1603 10.0018 45.5169 9.73425 46.1344C9.46678 46.7521 9.18394 46.3972 8.93939 46.406C8.69484 46.4149 8.47528 46.3701 8.28577 46.7023C7.95432 47.3566 7.30523 46.5156 7.04352 47.536L5.22636 47.3955L4.83375 46.6991C4.75301 47.0953 4.67298 47.4637 4.58471 47.8453C4.17997 48.0358 3.755 48.0505 3.34624 47.8884L3.1329 46.637L2.71013 47.1593L2.36131 46.6051L1.96966 47.1436L0.868358 47.0585L0.0127241 45.3273C-0.0200046 44.8611 0.0106238 44.3879 0.102077 43.9467L1.27417 44.0373L1.63907 44.5789L3.10223 44.692L3.42239 44.1757L4.46864 44.2566L4.902 43.624L5.94823 43.7049L6.36588 43.0712L8.15157 43.2093L8.48813 42.6664L9.56582 42.7498L9.94382 42.1268L10.9428 42.2041L11.447 41.577L13.0832 41.7035L14.447 40.4214L16.8069 40.6039L17.2163 39.9834L20.0876 40.2054C20.1779 40.0598 20.2682 39.9142 20.4166 39.6481L22.218 39.7874L22.6203 39.1386L24.4138 39.2773L24.8161 38.6285L26.9715 38.7951L27.3248 38.2119L29.0869 38.3482L29.5038 37.7422C29.6578 37.9863 29.8305 38.1911 30.0169 38.3507C30.0791 38.7024 29.9959 39.1955 30.3606 38.7935C30.2826 38.6157 30.1877 38.4628 30.0802 38.3417Z" fill="#ADC9A6"/>
<path d="M12.4453 11.6738L3.97266 35H0.509766L10.2656 9.40625H12.498L12.4453 11.6738ZM19.5469 35L11.0566 11.6738L11.0039 9.40625H13.2363L23.0273 35H19.5469ZM19.1074 25.5254V28.3027H4.72852V25.5254H19.1074ZM31.0961 8V35H27.8266V8H31.0961ZM41.45 15.9805V35H38.1805V15.9805H41.45ZM37.9344 10.9355C37.9344 10.4082 38.0926 9.96289 38.409 9.59961C38.7371 9.23633 39.2176 9.05469 39.8504 9.05469C40.4715 9.05469 40.9461 9.23633 41.2742 9.59961C41.6141 9.96289 41.784 10.4082 41.784 10.9355C41.784 11.4395 41.6141 11.873 41.2742 12.2363C40.9461 12.5879 40.4715 12.7637 39.8504 12.7637C39.2176 12.7637 38.7371 12.5879 38.409 12.2363C38.0926 11.873 37.9344 11.4395 37.9344 10.9355ZM60.593 15.9805H63.5461V34.5957C63.5461 36.2715 63.2062 37.7012 62.5266 38.8848C61.8469 40.0684 60.8977 40.9648 59.6789 41.5742C58.4719 42.1953 57.0773 42.5059 55.4953 42.5059C54.8391 42.5059 54.0656 42.4004 53.175 42.1895C52.2961 41.9902 51.4289 41.6445 50.5734 41.1523C49.7297 40.6719 49.0207 40.0215 48.4465 39.2012L50.1516 37.2676C50.9484 38.2285 51.7805 38.8965 52.6477 39.2715C53.5266 39.6465 54.3937 39.834 55.2492 39.834C56.2805 39.834 57.1711 39.6406 57.9211 39.2539C58.6711 38.8672 59.2512 38.293 59.6613 37.5312C60.0832 36.7812 60.2941 35.8555 60.2941 34.7539V20.1641L60.593 15.9805ZM47.4973 25.7012V25.332C47.4973 23.8789 47.6672 22.5605 48.007 21.377C48.3586 20.1816 48.8566 19.1562 49.5012 18.3008C50.1574 17.4453 50.9484 16.7891 51.8742 16.332C52.8 15.8633 53.843 15.6289 55.0031 15.6289C56.1984 15.6289 57.2414 15.8398 58.132 16.2617C59.0344 16.6719 59.7961 17.2754 60.4172 18.0723C61.05 18.8574 61.548 19.8066 61.9113 20.9199C62.2746 22.0332 62.5266 23.293 62.6672 24.6992V26.3164C62.5383 27.7109 62.2863 28.9648 61.9113 30.0781C61.548 31.1914 61.05 32.1406 60.4172 32.9258C59.7961 33.7109 59.0344 34.3145 58.132 34.7363C57.2297 35.1465 56.175 35.3516 54.968 35.3516C53.8312 35.3516 52.8 35.1113 51.8742 34.6309C50.9602 34.1504 50.175 33.4766 49.5187 32.6094C48.8625 31.7422 48.3586 30.7227 48.007 29.5508C47.6672 28.3672 47.4973 27.084 47.4973 25.7012ZM50.7492 25.332V25.7012C50.7492 26.6504 50.843 27.541 51.0305 28.373C51.2297 29.2051 51.5285 29.9375 51.927 30.5703C52.3371 31.2031 52.8586 31.7012 53.4914 32.0645C54.1242 32.416 54.8801 32.5918 55.759 32.5918C56.8371 32.5918 57.7277 32.3633 58.4309 31.9062C59.134 31.4492 59.6906 30.8457 60.1008 30.0957C60.5227 29.3457 60.8508 28.5312 61.0852 27.6523V23.416C60.9562 22.7715 60.757 22.1504 60.4875 21.5527C60.2297 20.9434 59.8898 20.4043 59.468 19.9355C59.0578 19.4551 58.548 19.0742 57.9387 18.793C57.3293 18.5117 56.6145 18.3711 55.7941 18.3711C54.9035 18.3711 54.1359 18.5586 53.4914 18.9336C52.8586 19.2969 52.3371 19.8008 51.927 20.4453C51.5285 21.0781 51.2297 21.8164 51.0305 22.6602C50.843 23.4922 50.7492 24.3828 50.7492 25.332ZM73.3375 20.041V35H70.0855V15.9805H73.1617L73.3375 20.041ZM72.5641 24.7695L71.2105 24.7168C71.2223 23.416 71.4156 22.2148 71.7906 21.1133C72.1656 20 72.693 19.0332 73.3727 18.2129C74.0523 17.3926 74.8609 16.7598 75.7984 16.3145C76.7477 15.8574 77.7965 15.6289 78.9449 15.6289C79.8824 15.6289 80.7262 15.7578 81.4762 16.0156C82.2262 16.2617 82.8648 16.6602 83.3922 17.2109C83.9313 17.7617 84.3414 18.4766 84.6227 19.3555C84.9039 20.2227 85.0445 21.2832 85.0445 22.5371V35H81.775V22.502C81.775 21.5059 81.6285 20.709 81.3355 20.1113C81.0426 19.502 80.6148 19.0625 80.0523 18.793C79.4898 18.5117 78.7984 18.3711 77.9781 18.3711C77.1695 18.3711 76.4313 18.541 75.7633 18.8809C75.107 19.2207 74.5387 19.6895 74.0582 20.2871C73.5895 20.8848 73.2203 21.5703 72.9508 22.3438C72.693 23.1055 72.5641 23.9141 72.5641 24.7695Z" fill="white"/>
</svg>
