<svg width="672" height="549" viewBox="0 0 672 549" fill="none" xmlns="http://www.w3.org/2000/svg">
<path d="M1.62 17V4.58H9.72V5.948H3.132V10.34H9.18V11.708H3.132V17H1.62ZM11.6336 5.894V4.202H13.2176V5.894H11.6336ZM11.7056 17V7.64H13.1456V17H11.7056ZM15.9578 17V8.72C16.3778 8 17.1578 7.64 18.2978 7.64H20.0978L20.8178 8.18V8.9H18.4958C17.9918 8.9 17.6258 9.038 17.3978 9.314V17H15.9578ZM22.3671 16.46V15.74H26.5251C27.3531 15.74 27.7671 15.32 27.7671 14.48C27.7671 13.628 27.4371 13.148 26.7771 13.04L24.6351 12.68C23.1231 12.428 22.3671 11.606 22.3671 10.214C22.3671 8.498 23.2671 7.64 25.0671 7.64H28.0731L28.7931 8.18V8.9H25.0491C24.2091 8.9 23.7891 9.32 23.7891 10.16C23.7891 10.916 24.1431 11.354 24.8511 11.474L26.9931 11.834C28.4811 12.074 29.2251 12.932 29.2251 14.408C29.2251 16.136 28.3131 17 26.4891 17H23.0871L22.3671 16.46ZM31.6551 14.3V4.58H33.0951V7.64H36.5151V8.9H33.0951V14.48C33.0951 15.32 33.5151 15.74 34.3551 15.74H36.6951V16.46L35.9751 17H34.3551C32.5551 17 31.6551 16.1 31.6551 14.3ZM43.2802 17V4.58H44.9542L51.4882 14.66V4.58H53.0002V17H51.3262L44.7922 6.92V17H43.2802ZM58.2692 17C56.4572 17 55.5512 16.094 55.5512 14.282C55.5512 12.47 56.4572 11.564 58.2692 11.564H61.5632V10.16C61.5632 9.32 61.1432 8.9 60.3032 8.9H56.4512V8.18L57.1712 7.64H60.3032C62.1032 7.64 63.0032 8.54 63.0032 10.34V17H58.2692ZM56.9912 14.48C56.9912 15.32 57.4112 15.74 58.2512 15.74H61.5632V12.734H58.2512C57.4112 12.734 56.9912 13.154 56.9912 13.994V14.48ZM65.8111 17V7.64H76.4311C78.2311 7.64 79.1311 8.54 79.1311 10.34V17H77.6911V10.16C77.6911 9.32 77.2711 8.9 76.4311 8.9H73.1911V17H71.7511V8.9H67.2511V17H65.8111ZM81.8038 14.3V10.34C81.8038 8.54 82.7038 7.64 84.5038 7.64H86.8438C88.6438 7.64 89.5438 8.54 89.5438 10.34V12.878H83.2438V14.48C83.2438 15.32 83.6638 15.74 84.5038 15.74H89.1838V16.46L88.4638 17H84.5038C82.7038 17 81.8038 16.1 81.8038 14.3ZM83.2438 11.708H88.1038V10.16C88.1038 9.32 87.6838 8.9 86.8438 8.9H84.5038C83.6638 8.9 83.2438 9.32 83.2438 10.16V11.708ZM91.406 7.712L91.748 6.686L94.592 7.55V4.58H95.744V7.55L98.588 6.686L98.93 7.712L96.122 8.666L97.832 11.096L96.95 11.726L95.168 9.386L93.386 11.726L92.504 11.096L94.214 8.666L91.406 7.712Z" fill="white"/>
<path d="M0.536988 94.5L4.46556 39.5H323.463L319.534 94.5H0.536988Z" stroke="#173352"/>
<path d="M21.4091 73V61.3636H28.3864V62.6136H22.8182V66.5455H27.8636V67.7955H22.8182V73H21.4091ZM30.6179 73V64.2727H31.9588V73H30.6179ZM31.2997 62.8182C31.0384 62.8182 30.813 62.7292 30.6236 62.5511C30.438 62.3731 30.3452 62.1591 30.3452 61.9091C30.3452 61.6591 30.438 61.4451 30.6236 61.267C30.813 61.089 31.0384 61 31.2997 61C31.5611 61 31.7846 61.089 31.9702 61.267C32.1596 61.4451 32.2543 61.6591 32.2543 61.9091C32.2543 62.1591 32.1596 62.3731 31.9702 62.5511C31.7846 62.7292 31.5611 62.8182 31.2997 62.8182ZM34.4148 73V64.2727H35.7102V65.5909H35.8011C35.9602 65.1591 36.2481 64.8087 36.6648 64.5398C37.0814 64.2708 37.5511 64.1364 38.0739 64.1364C38.1723 64.1364 38.2955 64.1383 38.4432 64.142C38.5909 64.1458 38.7027 64.1515 38.7784 64.1591V65.5227C38.733 65.5114 38.6288 65.4943 38.4659 65.4716C38.3068 65.4451 38.1383 65.4318 37.9602 65.4318C37.536 65.4318 37.1572 65.5208 36.8239 65.6989C36.4943 65.8731 36.233 66.1155 36.0398 66.4261C35.8504 66.733 35.7557 67.0833 35.7557 67.4773V73H34.4148ZM46.5497 66.2273L45.3452 66.5682C45.2694 66.3674 45.1577 66.1723 45.0099 65.983C44.866 65.7898 44.669 65.6307 44.419 65.5057C44.169 65.3807 43.849 65.3182 43.4588 65.3182C42.9247 65.3182 42.4796 65.4413 42.1236 65.6875C41.7713 65.9299 41.5952 66.2386 41.5952 66.6136C41.5952 66.947 41.7164 67.2102 41.9588 67.4034C42.2012 67.5966 42.58 67.7576 43.0952 67.8864L44.3906 68.2045C45.1709 68.3939 45.7524 68.6837 46.1349 69.0739C46.5175 69.4602 46.7088 69.9583 46.7088 70.5682C46.7088 71.0682 46.5649 71.5152 46.277 71.9091C45.9929 72.303 45.5952 72.6136 45.0838 72.8409C44.5724 73.0682 43.9777 73.1818 43.2997 73.1818C42.4096 73.1818 41.6728 72.9886 41.0895 72.6023C40.5062 72.2159 40.1368 71.6515 39.9815 70.9091L41.2543 70.5909C41.3755 71.0606 41.6046 71.4129 41.9418 71.6477C42.2827 71.8826 42.7277 72 43.277 72C43.902 72 44.3982 71.8674 44.7656 71.6023C45.1368 71.3333 45.3224 71.0114 45.3224 70.6364C45.3224 70.3333 45.2164 70.0795 45.0043 69.875C44.7921 69.6667 44.4664 69.5114 44.027 69.4091L42.5724 69.0682C41.7732 68.8788 41.1861 68.5852 40.8111 68.1875C40.4399 67.786 40.2543 67.2841 40.2543 66.6818C40.2543 66.1894 40.3925 65.7538 40.669 65.375C40.9493 64.9962 41.33 64.6989 41.8111 64.483C42.2959 64.267 42.8452 64.1591 43.4588 64.1591C44.3224 64.1591 45.0005 64.3485 45.4929 64.7273C45.9891 65.1061 46.3414 65.6061 46.5497 66.2273ZM52.5227 64.2727V65.4091H48V64.2727H52.5227ZM49.3182 62.1818H50.6591V70.5C50.6591 70.8788 50.714 71.1629 50.8239 71.3523C50.9375 71.5379 51.0814 71.6629 51.2557 71.7273C51.4337 71.7879 51.6212 71.8182 51.8182 71.8182C51.9659 71.8182 52.0871 71.8106 52.1818 71.7955C52.2765 71.7765 52.3523 71.7614 52.4091 71.75L52.6818 72.9545C52.5909 72.9886 52.464 73.0227 52.3011 73.0568C52.1383 73.0947 51.9318 73.1136 51.6818 73.1136C51.303 73.1136 50.9318 73.0322 50.5682 72.8693C50.2083 72.7064 49.9091 72.4583 49.6705 72.125C49.4356 71.7917 49.3182 71.3712 49.3182 70.8636V62.1818ZM60.3807 67.75V73H59.0398V64.2727H60.3352V65.6364H60.4489C60.6534 65.1932 60.964 64.8371 61.3807 64.5682C61.7973 64.2955 62.3352 64.1591 62.9943 64.1591C63.5852 64.1591 64.1023 64.2803 64.5455 64.5227C64.9886 64.7614 65.3333 65.125 65.5795 65.6136C65.8258 66.0985 65.9489 66.7121 65.9489 67.4545V73H64.608V67.5455C64.608 66.8598 64.4299 66.3258 64.0739 65.9432C63.7178 65.5568 63.2292 65.3636 62.608 65.3636C62.1799 65.3636 61.7973 65.4564 61.4602 65.642C61.1269 65.8277 60.8636 66.0985 60.6705 66.4545C60.4773 66.8106 60.3807 67.2424 60.3807 67.75ZM70.9673 73.2045C70.4143 73.2045 69.9124 73.1004 69.4616 72.892C69.0109 72.6799 68.6529 72.375 68.3878 71.9773C68.1226 71.5758 67.9901 71.0909 67.9901 70.5227C67.9901 70.0227 68.0885 69.6174 68.2855 69.3068C68.4825 68.9924 68.7457 68.7462 69.0753 68.5682C69.4048 68.3902 69.7685 68.2576 70.1662 68.1705C70.5677 68.0795 70.9711 68.0076 71.3764 67.9545C71.9067 67.8864 72.3366 67.8352 72.6662 67.8011C72.9995 67.7633 73.242 67.7008 73.3935 67.6136C73.5488 67.5265 73.6264 67.375 73.6264 67.1591V67.1136C73.6264 66.553 73.473 66.1174 73.1662 65.8068C72.8632 65.4962 72.4029 65.3409 71.7855 65.3409C71.1454 65.3409 70.6435 65.4811 70.2798 65.7614C69.9162 66.0417 69.6605 66.3409 69.5128 66.6591L68.2401 66.2045C68.4673 65.6742 68.7704 65.2614 69.1491 64.9659C69.5317 64.6667 69.9484 64.4583 70.3991 64.3409C70.8537 64.2197 71.3007 64.1591 71.7401 64.1591C72.0204 64.1591 72.3423 64.1932 72.706 64.2614C73.0734 64.3258 73.4276 64.4602 73.7685 64.6648C74.1132 64.8693 74.3991 65.178 74.6264 65.5909C74.8537 66.0038 74.9673 66.5568 74.9673 67.25V73H73.6264V71.8182H73.5582C73.4673 72.0076 73.3158 72.2102 73.1037 72.4261C72.8916 72.642 72.6094 72.8258 72.2571 72.9773C71.9048 73.1288 71.4749 73.2045 70.9673 73.2045ZM71.1719 72C71.7022 72 72.1491 71.8958 72.5128 71.6875C72.8802 71.4792 73.1567 71.2102 73.3423 70.8807C73.5317 70.5511 73.6264 70.2045 73.6264 69.8409V68.6136C73.5696 68.6818 73.4446 68.7443 73.2514 68.8011C73.062 68.8542 72.8423 68.9015 72.5923 68.9432C72.3461 68.9811 72.1056 69.0152 71.8707 69.0455C71.6397 69.072 71.4522 69.0947 71.3082 69.1136C70.9598 69.1591 70.634 69.233 70.331 69.3352C70.0317 69.4337 69.7893 69.5833 69.6037 69.7841C69.4219 69.9811 69.331 70.25 69.331 70.5909C69.331 71.0568 69.5033 71.4091 69.848 71.6477C70.1965 71.8826 70.6378 72 71.1719 72ZM77.4148 73V64.2727H78.7102V65.6364H78.8239C79.0057 65.1705 79.2992 64.8087 79.7045 64.5511C80.1098 64.2898 80.5966 64.1591 81.1648 64.1591C81.7405 64.1591 82.2197 64.2898 82.6023 64.5511C82.9886 64.8087 83.2898 65.1705 83.5057 65.6364H83.5966C83.8201 65.1856 84.1553 64.8277 84.6023 64.5625C85.0492 64.2936 85.5852 64.1591 86.2102 64.1591C86.9905 64.1591 87.6288 64.4034 88.125 64.892C88.6212 65.3769 88.8693 66.1326 88.8693 67.1591V73H87.5284V67.1591C87.5284 66.5152 87.3523 66.0549 87 65.7784C86.6477 65.5019 86.233 65.3636 85.7557 65.3636C85.142 65.3636 84.6667 65.5492 84.3295 65.9205C83.9924 66.2879 83.8239 66.7538 83.8239 67.3182V73H82.4602V67.0227C82.4602 66.5265 82.2992 66.1269 81.9773 65.8239C81.6553 65.517 81.2405 65.3636 80.733 65.3636C80.3845 65.3636 80.0587 65.4564 79.7557 65.642C79.4564 65.8277 79.214 66.0852 79.0284 66.4148C78.8466 66.7405 78.7557 67.1174 78.7557 67.5455V73H77.4148ZM94.9801 73.1818C94.1392 73.1818 93.4138 72.9962 92.804 72.625C92.1979 72.25 91.7301 71.7273 91.4006 71.0568C91.0748 70.3826 90.9119 69.5985 90.9119 68.7045C90.9119 67.8106 91.0748 67.0227 91.4006 66.3409C91.7301 65.6553 92.1884 65.1212 92.7756 64.7386C93.3665 64.3523 94.0559 64.1591 94.8438 64.1591C95.2983 64.1591 95.7472 64.2348 96.1903 64.3864C96.6335 64.5379 97.0369 64.7841 97.4006 65.125C97.7642 65.4621 98.054 65.9091 98.2699 66.4659C98.4858 67.0227 98.5938 67.7083 98.5938 68.5227V69.0909H91.8665V67.9318H97.2301C97.2301 67.4394 97.1316 67 96.9347 66.6136C96.7415 66.2273 96.465 65.9223 96.1051 65.6989C95.7491 65.4754 95.3286 65.3636 94.8438 65.3636C94.3097 65.3636 93.8475 65.4962 93.4574 65.7614C93.071 66.0227 92.7737 66.3636 92.5653 66.7841C92.357 67.2045 92.2528 67.6553 92.2528 68.1364V68.9091C92.2528 69.5682 92.3665 70.1269 92.5938 70.5852C92.8248 71.0398 93.1449 71.3864 93.554 71.625C93.9631 71.8598 94.4384 71.9773 94.9801 71.9773C95.3324 71.9773 95.6506 71.928 95.9347 71.8295C96.2225 71.7273 96.4706 71.5758 96.679 71.375C96.8873 71.1705 97.0483 70.9167 97.1619 70.6136L98.4574 70.9773C98.321 71.4167 98.0919 71.803 97.7699 72.1364C97.4479 72.4659 97.0502 72.7235 96.5767 72.9091C96.1032 73.0909 95.571 73.1818 94.9801 73.1818Z" fill="#A7B4C3"/>
<path d="M1.62 144V131.58H9.72V132.948H3.132V136.8H9.18V138.168H3.132V142.632H9.72V144H1.62ZM12.0572 144V134.64H22.6772C24.4772 134.64 25.3772 135.54 25.3772 137.34V144H23.9372V137.16C23.9372 136.32 23.5172 135.9 22.6772 135.9H19.4372V144H17.9972V135.9H13.4972V144H12.0572ZM30.4079 144C28.5959 144 27.6899 143.094 27.6899 141.282C27.6899 139.47 28.5959 138.564 30.4079 138.564H33.7019V137.16C33.7019 136.32 33.2819 135.9 32.4419 135.9H28.5899V135.18L29.3099 134.64H32.4419C34.2419 134.64 35.1419 135.54 35.1419 137.34V144H30.4079ZM29.1299 141.48C29.1299 142.32 29.5499 142.74 30.3899 142.74H33.7019V139.734H30.3899C29.5499 139.734 29.1299 140.154 29.1299 140.994V141.48ZM37.8778 132.894V131.202H39.4618V132.894H37.8778ZM37.9498 144V134.64H39.3898V144H37.9498ZM42.202 141.444V130.68H43.642V141.588C43.642 142.416 44.062 142.854 44.902 142.902V144.144C43.102 144.144 42.202 143.244 42.202 141.444ZM46.072 134.712L46.414 133.686L49.258 134.55V131.58H50.41V134.55L53.254 133.686L53.596 134.712L50.788 135.666L52.498 138.096L51.616 138.726L49.834 136.386L48.052 138.726L47.17 138.096L48.88 135.666L46.072 134.712Z" fill="white"/>
<path d="M0.536988 221.5L4.46556 166.5H323.463L319.534 221.5H0.536988Z" stroke="#173352"/>
<path d="M21.4091 200V188.364H28.4318V189.614H22.8182V193.545H28.0682V194.795H22.8182V198.75H28.5227V200H21.4091ZM30.7898 200V191.273H32.0852V192.636H32.1989C32.3807 192.17 32.6742 191.809 33.0795 191.551C33.4848 191.29 33.9716 191.159 34.5398 191.159C35.1155 191.159 35.5947 191.29 35.9773 191.551C36.3636 191.809 36.6648 192.17 36.8807 192.636H36.9716C37.1951 192.186 37.5303 191.828 37.9773 191.562C38.4242 191.294 38.9602 191.159 39.5852 191.159C40.3655 191.159 41.0038 191.403 41.5 191.892C41.9962 192.377 42.2443 193.133 42.2443 194.159V200H40.9034V194.159C40.9034 193.515 40.7273 193.055 40.375 192.778C40.0227 192.502 39.608 192.364 39.1307 192.364C38.517 192.364 38.0417 192.549 37.7045 192.92C37.3674 193.288 37.1989 193.754 37.1989 194.318V200H35.8352V194.023C35.8352 193.527 35.6742 193.127 35.3523 192.824C35.0303 192.517 34.6155 192.364 34.108 192.364C33.7595 192.364 33.4337 192.456 33.1307 192.642C32.8314 192.828 32.589 193.085 32.4034 193.415C32.2216 193.741 32.1307 194.117 32.1307 194.545V200H30.7898ZM47.2642 200.205C46.7112 200.205 46.2093 200.1 45.7585 199.892C45.3078 199.68 44.9498 199.375 44.6847 198.977C44.4195 198.576 44.2869 198.091 44.2869 197.523C44.2869 197.023 44.3854 196.617 44.5824 196.307C44.7794 195.992 45.0426 195.746 45.3722 195.568C45.7017 195.39 46.0653 195.258 46.4631 195.17C46.8646 195.08 47.268 195.008 47.6733 194.955C48.2036 194.886 48.6335 194.835 48.9631 194.801C49.2964 194.763 49.5388 194.701 49.6903 194.614C49.8456 194.527 49.9233 194.375 49.9233 194.159V194.114C49.9233 193.553 49.7699 193.117 49.4631 192.807C49.16 192.496 48.6998 192.341 48.0824 192.341C47.4422 192.341 46.9403 192.481 46.5767 192.761C46.2131 193.042 45.9574 193.341 45.8097 193.659L44.5369 193.205C44.7642 192.674 45.0672 192.261 45.446 191.966C45.8286 191.667 46.2453 191.458 46.696 191.341C47.1506 191.22 47.5975 191.159 48.0369 191.159C48.3172 191.159 48.6392 191.193 49.0028 191.261C49.3703 191.326 49.7244 191.46 50.0653 191.665C50.41 191.869 50.696 192.178 50.9233 192.591C51.1506 193.004 51.2642 193.557 51.2642 194.25V200H49.9233V198.818H49.8551C49.7642 199.008 49.6127 199.21 49.4006 199.426C49.1884 199.642 48.9063 199.826 48.554 199.977C48.2017 200.129 47.7718 200.205 47.2642 200.205ZM47.4688 199C47.9991 199 48.446 198.896 48.8097 198.688C49.1771 198.479 49.4536 198.21 49.6392 197.881C49.8286 197.551 49.9233 197.205 49.9233 196.841V195.614C49.8665 195.682 49.7415 195.744 49.5483 195.801C49.3589 195.854 49.1392 195.902 48.8892 195.943C48.643 195.981 48.4025 196.015 48.1676 196.045C47.9366 196.072 47.7491 196.095 47.6051 196.114C47.2566 196.159 46.9309 196.233 46.6278 196.335C46.3286 196.434 46.0862 196.583 45.9006 196.784C45.7188 196.981 45.6278 197.25 45.6278 197.591C45.6278 198.057 45.8002 198.409 46.1449 198.648C46.4934 198.883 46.9347 199 47.4688 199ZM53.7116 200V191.273H55.0526V200H53.7116ZM54.3935 189.818C54.1321 189.818 53.9067 189.729 53.7173 189.551C53.5317 189.373 53.4389 189.159 53.4389 188.909C53.4389 188.659 53.5317 188.445 53.7173 188.267C53.9067 188.089 54.1321 188 54.3935 188C54.6548 188 54.8783 188.089 55.0639 188.267C55.2533 188.445 55.348 188.659 55.348 188.909C55.348 189.159 55.2533 189.373 55.0639 189.551C54.8783 189.729 54.6548 189.818 54.3935 189.818ZM58.8494 188.364V200H57.5085V188.364H58.8494ZM68.3736 200.205C67.8205 200.205 67.3187 200.1 66.8679 199.892C66.4171 199.68 66.0592 199.375 65.794 198.977C65.5289 198.576 65.3963 198.091 65.3963 197.523C65.3963 197.023 65.4948 196.617 65.6918 196.307C65.8887 195.992 66.152 195.746 66.4815 195.568C66.8111 195.39 67.1747 195.258 67.5724 195.17C67.974 195.08 68.3774 195.008 68.7827 194.955C69.313 194.886 69.7429 194.835 70.0724 194.801C70.4058 194.763 70.6482 194.701 70.7997 194.614C70.955 194.527 71.0327 194.375 71.0327 194.159V194.114C71.0327 193.553 70.8793 193.117 70.5724 192.807C70.2694 192.496 69.8092 192.341 69.1918 192.341C68.5516 192.341 68.0497 192.481 67.6861 192.761C67.3224 193.042 67.0668 193.341 66.919 193.659L65.6463 193.205C65.8736 192.674 66.1766 192.261 66.5554 191.966C66.938 191.667 67.3546 191.458 67.8054 191.341C68.2599 191.22 68.7069 191.159 69.1463 191.159C69.4266 191.159 69.7486 191.193 70.1122 191.261C70.4796 191.326 70.8338 191.46 71.1747 191.665C71.5194 191.869 71.8054 192.178 72.0327 192.591C72.2599 193.004 72.3736 193.557 72.3736 194.25V200H71.0327V198.818H70.9645C70.8736 199.008 70.7221 199.21 70.5099 199.426C70.2978 199.642 70.0156 199.826 69.6634 199.977C69.3111 200.129 68.8812 200.205 68.3736 200.205ZM68.5781 199C69.1084 199 69.5554 198.896 69.919 198.688C70.2865 198.479 70.563 198.21 70.7486 197.881C70.938 197.551 71.0327 197.205 71.0327 196.841V195.614C70.9759 195.682 70.8509 195.744 70.6577 195.801C70.4683 195.854 70.2486 195.902 69.9986 195.943C69.7524 195.981 69.5118 196.015 69.277 196.045C69.0459 196.072 68.8584 196.095 68.7145 196.114C68.366 196.159 68.0402 196.233 67.7372 196.335C67.438 196.434 67.1955 196.583 67.0099 196.784C66.8281 196.981 66.7372 197.25 66.7372 197.591C66.7372 198.057 66.9096 198.409 67.2543 198.648C67.6027 198.883 68.044 199 68.5781 199ZM78.1165 200.182C77.3892 200.182 76.7472 199.998 76.1903 199.631C75.6335 199.259 75.1979 198.737 74.8835 198.062C74.5691 197.384 74.4119 196.583 74.4119 195.659C74.4119 194.742 74.5691 193.947 74.8835 193.273C75.1979 192.598 75.6354 192.078 76.196 191.71C76.7566 191.343 77.4044 191.159 78.1392 191.159C78.7074 191.159 79.1563 191.254 79.4858 191.443C79.8191 191.629 80.0729 191.841 80.2472 192.08C80.4252 192.314 80.5634 192.508 80.6619 192.659H80.7756V188.364H82.1165V200H80.821V198.659H80.6619C80.5634 198.818 80.4233 199.019 80.2415 199.261C80.0597 199.5 79.8002 199.714 79.4631 199.903C79.1259 200.089 78.6771 200.182 78.1165 200.182ZM78.2983 198.977C78.8362 198.977 79.2907 198.837 79.6619 198.557C80.0331 198.273 80.3153 197.881 80.5085 197.381C80.7017 196.877 80.7983 196.295 80.7983 195.636C80.7983 194.985 80.7036 194.415 80.5142 193.926C80.3248 193.434 80.0445 193.051 79.6733 192.778C79.3021 192.502 78.8438 192.364 78.2983 192.364C77.7301 192.364 77.2566 192.509 76.8778 192.801C76.5028 193.089 76.2206 193.481 76.0312 193.977C75.8456 194.47 75.7528 195.023 75.7528 195.636C75.7528 196.258 75.8475 196.822 76.0369 197.33C76.2301 197.833 76.5142 198.235 76.8892 198.534C77.268 198.83 77.7377 198.977 78.2983 198.977ZM88.054 200.182C87.3267 200.182 86.6847 199.998 86.1278 199.631C85.571 199.259 85.1354 198.737 84.821 198.062C84.5066 197.384 84.3494 196.583 84.3494 195.659C84.3494 194.742 84.5066 193.947 84.821 193.273C85.1354 192.598 85.5729 192.078 86.1335 191.71C86.6941 191.343 87.3419 191.159 88.0767 191.159C88.6449 191.159 89.0938 191.254 89.4233 191.443C89.7566 191.629 90.0104 191.841 90.1847 192.08C90.3627 192.314 90.5009 192.508 90.5994 192.659H90.7131V188.364H92.054V200H90.7585V198.659H90.5994C90.5009 198.818 90.3608 199.019 90.179 199.261C89.9972 199.5 89.7377 199.714 89.4006 199.903C89.0634 200.089 88.6146 200.182 88.054 200.182ZM88.2358 198.977C88.7737 198.977 89.2282 198.837 89.5994 198.557C89.9706 198.273 90.2528 197.881 90.446 197.381C90.6392 196.877 90.7358 196.295 90.7358 195.636C90.7358 194.985 90.6411 194.415 90.4517 193.926C90.2623 193.434 89.982 193.051 89.6108 192.778C89.2396 192.502 88.7813 192.364 88.2358 192.364C87.6676 192.364 87.1941 192.509 86.8153 192.801C86.4403 193.089 86.1581 193.481 85.9688 193.977C85.7831 194.47 85.6903 195.023 85.6903 195.636C85.6903 196.258 85.785 196.822 85.9744 197.33C86.1676 197.833 86.4517 198.235 86.8267 198.534C87.2055 198.83 87.6752 198.977 88.2358 198.977ZM94.696 200V191.273H95.9915V192.591H96.0824C96.2415 192.159 96.5294 191.809 96.946 191.54C97.3627 191.271 97.8324 191.136 98.3551 191.136C98.4536 191.136 98.5767 191.138 98.7244 191.142C98.8722 191.146 98.9839 191.152 99.0597 191.159V192.523C99.0142 192.511 98.91 192.494 98.7472 192.472C98.5881 192.445 98.4195 192.432 98.2415 192.432C97.8172 192.432 97.4384 192.521 97.1051 192.699C96.7756 192.873 96.5142 193.116 96.321 193.426C96.1316 193.733 96.0369 194.083 96.0369 194.477V200H94.696ZM104.043 200.182C103.202 200.182 102.476 199.996 101.866 199.625C101.26 199.25 100.793 198.727 100.463 198.057C100.137 197.383 99.9744 196.598 99.9744 195.705C99.9744 194.811 100.137 194.023 100.463 193.341C100.793 192.655 101.251 192.121 101.838 191.739C102.429 191.352 103.118 191.159 103.906 191.159C104.361 191.159 104.81 191.235 105.253 191.386C105.696 191.538 106.099 191.784 106.463 192.125C106.827 192.462 107.116 192.909 107.332 193.466C107.548 194.023 107.656 194.708 107.656 195.523V196.091H100.929V194.932H106.293C106.293 194.439 106.194 194 105.997 193.614C105.804 193.227 105.527 192.922 105.168 192.699C104.812 192.475 104.391 192.364 103.906 192.364C103.372 192.364 102.91 192.496 102.52 192.761C102.134 193.023 101.836 193.364 101.628 193.784C101.42 194.205 101.315 194.655 101.315 195.136V195.909C101.315 196.568 101.429 197.127 101.656 197.585C101.887 198.04 102.207 198.386 102.616 198.625C103.026 198.86 103.501 198.977 104.043 198.977C104.395 198.977 104.713 198.928 104.997 198.83C105.285 198.727 105.533 198.576 105.741 198.375C105.95 198.17 106.111 197.917 106.224 197.614L107.52 197.977C107.384 198.417 107.154 198.803 106.832 199.136C106.51 199.466 106.113 199.723 105.639 199.909C105.166 200.091 104.634 200.182 104.043 200.182ZM115.878 193.227L114.673 193.568C114.598 193.367 114.486 193.172 114.338 192.983C114.194 192.79 113.997 192.631 113.747 192.506C113.497 192.381 113.177 192.318 112.787 192.318C112.253 192.318 111.808 192.441 111.452 192.688C111.099 192.93 110.923 193.239 110.923 193.614C110.923 193.947 111.045 194.21 111.287 194.403C111.529 194.597 111.908 194.758 112.423 194.886L113.719 195.205C114.499 195.394 115.08 195.684 115.463 196.074C115.846 196.46 116.037 196.958 116.037 197.568C116.037 198.068 115.893 198.515 115.605 198.909C115.321 199.303 114.923 199.614 114.412 199.841C113.901 200.068 113.306 200.182 112.628 200.182C111.738 200.182 111.001 199.989 110.418 199.602C109.834 199.216 109.465 198.652 109.31 197.909L110.582 197.591C110.704 198.061 110.933 198.413 111.27 198.648C111.611 198.883 112.056 199 112.605 199C113.23 199 113.726 198.867 114.094 198.602C114.465 198.333 114.651 198.011 114.651 197.636C114.651 197.333 114.545 197.08 114.332 196.875C114.12 196.667 113.795 196.511 113.355 196.409L111.901 196.068C111.101 195.879 110.514 195.585 110.139 195.188C109.768 194.786 109.582 194.284 109.582 193.682C109.582 193.189 109.721 192.754 109.997 192.375C110.277 191.996 110.658 191.699 111.139 191.483C111.624 191.267 112.173 191.159 112.787 191.159C113.651 191.159 114.329 191.348 114.821 191.727C115.317 192.106 115.67 192.606 115.878 193.227ZM124.237 193.227L123.033 193.568C122.957 193.367 122.845 193.172 122.697 192.983C122.554 192.79 122.357 192.631 122.107 192.506C121.857 192.381 121.536 192.318 121.146 192.318C120.612 192.318 120.167 192.441 119.811 192.688C119.459 192.93 119.283 193.239 119.283 193.614C119.283 193.947 119.404 194.21 119.646 194.403C119.889 194.597 120.268 194.758 120.783 194.886L122.078 195.205C122.858 195.394 123.44 195.684 123.822 196.074C124.205 196.46 124.396 196.958 124.396 197.568C124.396 198.068 124.252 198.515 123.964 198.909C123.68 199.303 123.283 199.614 122.771 199.841C122.26 200.068 121.665 200.182 120.987 200.182C120.097 200.182 119.36 199.989 118.777 199.602C118.194 199.216 117.824 198.652 117.669 197.909L118.942 197.591C119.063 198.061 119.292 198.413 119.629 198.648C119.97 198.883 120.415 199 120.964 199C121.589 199 122.086 198.867 122.453 198.602C122.824 198.333 123.01 198.011 123.01 197.636C123.01 197.333 122.904 197.08 122.692 196.875C122.48 196.667 122.154 196.511 121.714 196.409L120.26 196.068C119.461 195.879 118.874 195.585 118.499 195.188C118.127 194.786 117.942 194.284 117.942 193.682C117.942 193.189 118.08 192.754 118.357 192.375C118.637 191.996 119.018 191.699 119.499 191.483C119.983 191.267 120.533 191.159 121.146 191.159C122.01 191.159 122.688 191.348 123.18 191.727C123.677 192.106 124.029 192.606 124.237 193.227Z" fill="#A7B4C3"/>
<path d="M1.62 271V258.58H3.618L7.776 267.4L11.916 258.58H13.914V271H12.402V260.848L8.478 269.2H7.056L3.132 260.848V271H1.62ZM16.8351 268.3V264.34C16.8351 262.54 17.7351 261.64 19.5351 261.64H21.8751C23.6751 261.64 24.5751 262.54 24.5751 264.34V266.878H18.2751V268.48C18.2751 269.32 18.6951 269.74 19.5351 269.74H24.2151V270.46L23.4951 271H19.5351C17.7351 271 16.8351 270.1 16.8351 268.3ZM18.2751 265.708H23.1351V264.16C23.1351 263.32 22.7151 262.9 21.8751 262.9H19.5351C18.6951 262.9 18.2751 263.32 18.2751 264.16V265.708ZM26.955 270.46V269.74H31.113C31.941 269.74 32.355 269.32 32.355 268.48C32.355 267.628 32.025 267.148 31.365 267.04L29.223 266.68C27.711 266.428 26.955 265.606 26.955 264.214C26.955 262.498 27.855 261.64 29.655 261.64H32.661L33.381 262.18V262.9H29.637C28.797 262.9 28.377 263.32 28.377 264.16C28.377 264.916 28.731 265.354 29.439 265.474L31.581 265.834C33.069 266.074 33.813 266.932 33.813 268.408C33.813 270.136 32.901 271 31.077 271H27.675L26.955 270.46ZM35.955 270.46V269.74H40.113C40.941 269.74 41.355 269.32 41.355 268.48C41.355 267.628 41.025 267.148 40.365 267.04L38.223 266.68C36.711 266.428 35.955 265.606 35.955 264.214C35.955 262.498 36.855 261.64 38.655 261.64H41.661L42.381 262.18V262.9H38.637C37.797 262.9 37.377 263.32 37.377 264.16C37.377 264.916 37.731 265.354 38.439 265.474L40.581 265.834C42.069 266.074 42.813 266.932 42.813 268.408C42.813 270.136 41.901 271 40.077 271H36.675L35.955 270.46ZM47.529 271C45.717 271 44.811 270.094 44.811 268.282C44.811 266.47 45.717 265.564 47.529 265.564H50.823V264.16C50.823 263.32 50.403 262.9 49.563 262.9H45.711V262.18L46.431 261.64H49.563C51.363 261.64 52.263 262.54 52.263 264.34V271H47.529ZM46.251 268.48C46.251 269.32 46.671 269.74 47.511 269.74H50.823V266.734H47.511C46.671 266.734 46.251 267.154 46.251 267.994V268.48ZM54.9269 268.3V264.34C54.9269 262.54 55.8269 261.64 57.6269 261.64H62.6669V271.9C62.6669 273.7 61.7669 274.6 59.9669 274.6H56.3669L55.6469 274.06V273.34H59.9669C60.8069 273.34 61.2269 272.92 61.2269 272.08V271H57.6269C55.8269 271 54.9269 270.1 54.9269 268.3ZM56.3669 268.48C56.3669 269.32 56.7869 269.74 57.6269 269.74H61.2269V262.9H57.6269C56.7869 262.9 56.3669 263.32 56.3669 264.16V268.48ZM65.4034 268.3V264.34C65.4034 262.54 66.3034 261.64 68.1034 261.64H70.4434C72.2434 261.64 73.1434 262.54 73.1434 264.34V266.878H66.8434V268.48C66.8434 269.32 67.2634 269.74 68.1034 269.74H72.7834V270.46L72.0634 271H68.1034C66.3034 271 65.4034 270.1 65.4034 268.3ZM66.8434 265.708H71.7034V264.16C71.7034 263.32 71.2834 262.9 70.4434 262.9H68.1034C67.2634 262.9 66.8434 263.32 66.8434 264.16V265.708Z" fill="white"/>
<path d="M0.511903 462.5L4.48837 293.5H669.488L665.512 462.5H0.511903Z" stroke="#173352"/>
<path d="M23.5227 328L20.3409 316.364H21.7727L24.2045 325.841H24.3182L26.7955 316.364H28.3864L30.8636 325.841H30.9773L33.4091 316.364H34.8409L31.6591 328H30.2045L27.6364 318.727H27.5455L24.9773 328H23.5227ZM35.8679 328V319.273H37.1634V320.591H37.2543C37.4134 320.159 37.7012 319.809 38.1179 319.54C38.5346 319.271 39.0043 319.136 39.527 319.136C39.6255 319.136 39.7486 319.138 39.8963 319.142C40.044 319.146 40.1558 319.152 40.2315 319.159V320.523C40.1861 320.511 40.0819 320.494 39.919 320.472C39.7599 320.445 39.5914 320.432 39.4134 320.432C38.9891 320.432 38.6103 320.521 38.277 320.699C37.9474 320.873 37.6861 321.116 37.4929 321.426C37.3035 321.733 37.2088 322.083 37.2088 322.477V328H35.8679ZM41.821 328V319.273H43.1619V328H41.821ZM42.5028 317.818C42.2415 317.818 42.0161 317.729 41.8267 317.551C41.6411 317.373 41.5483 317.159 41.5483 316.909C41.5483 316.659 41.6411 316.445 41.8267 316.267C42.0161 316.089 42.2415 316 42.5028 316C42.7642 316 42.9877 316.089 43.1733 316.267C43.3627 316.445 43.4574 316.659 43.4574 316.909C43.4574 317.159 43.3627 317.373 43.1733 317.551C42.9877 317.729 42.7642 317.818 42.5028 317.818ZM49.4134 319.273V320.409H44.8906V319.273H49.4134ZM46.2088 317.182H47.5497V325.5C47.5497 325.879 47.6046 326.163 47.7145 326.352C47.8281 326.538 47.9721 326.663 48.1463 326.727C48.3243 326.788 48.5118 326.818 48.7088 326.818C48.8565 326.818 48.9777 326.811 49.0724 326.795C49.1671 326.777 49.2429 326.761 49.2997 326.75L49.5724 327.955C49.4815 327.989 49.3546 328.023 49.1918 328.057C49.0289 328.095 48.8224 328.114 48.5724 328.114C48.1937 328.114 47.8224 328.032 47.4588 327.869C47.099 327.706 46.7997 327.458 46.5611 327.125C46.3262 326.792 46.2088 326.371 46.2088 325.864V317.182ZM54.9957 328.182C54.1548 328.182 53.4295 327.996 52.8196 327.625C52.2135 327.25 51.7457 326.727 51.4162 326.057C51.0904 325.383 50.9276 324.598 50.9276 323.705C50.9276 322.811 51.0904 322.023 51.4162 321.341C51.7457 320.655 52.2041 320.121 52.7912 319.739C53.3821 319.352 54.0715 319.159 54.8594 319.159C55.3139 319.159 55.7628 319.235 56.206 319.386C56.6491 319.538 57.0526 319.784 57.4162 320.125C57.7798 320.462 58.0696 320.909 58.2855 321.466C58.5014 322.023 58.6094 322.708 58.6094 323.523V324.091H51.8821V322.932H57.2457C57.2457 322.439 57.1473 322 56.9503 321.614C56.7571 321.227 56.4806 320.922 56.1207 320.699C55.7647 320.475 55.3442 320.364 54.8594 320.364C54.3253 320.364 53.8632 320.496 53.473 320.761C53.0866 321.023 52.7893 321.364 52.581 321.784C52.3726 322.205 52.2685 322.655 52.2685 323.136V323.909C52.2685 324.568 52.3821 325.127 52.6094 325.585C52.8404 326.04 53.1605 326.386 53.5696 326.625C53.9787 326.86 54.4541 326.977 54.9957 326.977C55.348 326.977 55.6662 326.928 55.9503 326.83C56.2382 326.727 56.4863 326.576 56.6946 326.375C56.9029 326.17 57.0639 325.917 57.1776 325.614L58.473 325.977C58.3366 326.417 58.1075 326.803 57.7855 327.136C57.4635 327.466 57.0658 327.723 56.5923 327.909C56.1188 328.091 55.5866 328.182 54.9957 328.182ZM66.0128 331.273C65.7855 331.273 65.5829 331.254 65.4048 331.216C65.2268 331.182 65.1037 331.148 65.0355 331.114L65.3764 329.932C65.7022 330.015 65.9901 330.045 66.2401 330.023C66.4901 330 66.7116 329.888 66.9048 329.688C67.1018 329.491 67.2817 329.17 67.4446 328.727L67.6946 328.045L64.4673 319.273H65.9219L68.331 326.227H68.4219L70.831 319.273H72.2855L68.581 329.273C68.4143 329.723 68.2079 330.097 67.9616 330.392C67.7154 330.691 67.4295 330.913 67.1037 331.057C66.7817 331.201 66.4181 331.273 66.0128 331.273ZM77.2884 328.182C76.5005 328.182 75.8092 327.994 75.2145 327.619C74.6236 327.244 74.1615 326.72 73.8281 326.045C73.4986 325.371 73.3338 324.583 73.3338 323.682C73.3338 322.773 73.4986 321.979 73.8281 321.301C74.1615 320.623 74.6236 320.097 75.2145 319.722C75.8092 319.347 76.5005 319.159 77.2884 319.159C78.0762 319.159 78.7656 319.347 79.3565 319.722C79.9512 320.097 80.4134 320.623 80.7429 321.301C81.0762 321.979 81.2429 322.773 81.2429 323.682C81.2429 324.583 81.0762 325.371 80.7429 326.045C80.4134 326.72 79.9512 327.244 79.3565 327.619C78.7656 327.994 78.0762 328.182 77.2884 328.182ZM77.2884 326.977C77.8868 326.977 78.3793 326.824 78.7656 326.517C79.152 326.21 79.438 325.807 79.6236 325.307C79.8092 324.807 79.902 324.265 79.902 323.682C79.902 323.098 79.8092 322.555 79.6236 322.051C79.438 321.547 79.152 321.14 78.7656 320.83C78.3793 320.519 77.8868 320.364 77.2884 320.364C76.6899 320.364 76.1974 320.519 75.8111 320.83C75.4247 321.14 75.1387 321.547 74.9531 322.051C74.7675 322.555 74.6747 323.098 74.6747 323.682C74.6747 324.265 74.7675 324.807 74.9531 325.307C75.1387 325.807 75.4247 326.21 75.8111 326.517C76.1974 326.824 76.6899 326.977 77.2884 326.977ZM88.7898 324.432V319.273H90.1307V328H88.7898V326.523H88.6989C88.4943 326.966 88.1761 327.343 87.7443 327.653C87.3125 327.96 86.767 328.114 86.108 328.114C85.5625 328.114 85.0777 327.994 84.6534 327.756C84.2292 327.513 83.8958 327.15 83.6534 326.665C83.411 326.176 83.2898 325.561 83.2898 324.818V319.273H84.6307V324.727C84.6307 325.364 84.8087 325.871 85.1648 326.25C85.5246 326.629 85.983 326.818 86.5398 326.818C86.8731 326.818 87.2121 326.733 87.5568 326.562C87.9053 326.392 88.197 326.131 88.4318 325.778C88.6705 325.426 88.7898 324.977 88.7898 324.432ZM92.5866 328V319.273H93.8821V320.591H93.973C94.1321 320.159 94.42 319.809 94.8366 319.54C95.2533 319.271 95.723 319.136 96.2457 319.136C96.3442 319.136 96.4673 319.138 96.6151 319.142C96.7628 319.146 96.8745 319.152 96.9503 319.159V320.523C96.9048 320.511 96.8007 320.494 96.6378 320.472C96.4787 320.445 96.3101 320.432 96.1321 320.432C95.7079 320.432 95.3291 320.521 94.9957 320.699C94.6662 320.873 94.4048 321.116 94.2116 321.426C94.0223 321.733 93.9276 322.083 93.9276 322.477V328H92.5866ZM103.04 328V319.273H104.335V320.636H104.449C104.631 320.17 104.924 319.809 105.33 319.551C105.735 319.29 106.222 319.159 106.79 319.159C107.366 319.159 107.845 319.29 108.227 319.551C108.614 319.809 108.915 320.17 109.131 320.636H109.222C109.445 320.186 109.78 319.828 110.227 319.562C110.674 319.294 111.21 319.159 111.835 319.159C112.616 319.159 113.254 319.403 113.75 319.892C114.246 320.377 114.494 321.133 114.494 322.159V328H113.153V322.159C113.153 321.515 112.977 321.055 112.625 320.778C112.273 320.502 111.858 320.364 111.381 320.364C110.767 320.364 110.292 320.549 109.955 320.92C109.617 321.288 109.449 321.754 109.449 322.318V328H108.085V322.023C108.085 321.527 107.924 321.127 107.602 320.824C107.28 320.517 106.866 320.364 106.358 320.364C106.009 320.364 105.684 320.456 105.381 320.642C105.081 320.828 104.839 321.085 104.653 321.415C104.472 321.741 104.381 322.117 104.381 322.545V328H103.04ZM120.605 328.182C119.764 328.182 119.039 327.996 118.429 327.625C117.823 327.25 117.355 326.727 117.026 326.057C116.7 325.383 116.537 324.598 116.537 323.705C116.537 322.811 116.7 322.023 117.026 321.341C117.355 320.655 117.813 320.121 118.401 319.739C118.991 319.352 119.681 319.159 120.469 319.159C120.923 319.159 121.372 319.235 121.815 319.386C122.259 319.538 122.662 319.784 123.026 320.125C123.389 320.462 123.679 320.909 123.895 321.466C124.111 322.023 124.219 322.708 124.219 323.523V324.091H117.491V322.932H122.855C122.855 322.439 122.757 322 122.56 321.614C122.366 321.227 122.09 320.922 121.73 320.699C121.374 320.475 120.954 320.364 120.469 320.364C119.935 320.364 119.473 320.496 119.082 320.761C118.696 321.023 118.399 321.364 118.19 321.784C117.982 322.205 117.878 322.655 117.878 323.136V323.909C117.878 324.568 117.991 325.127 118.219 325.585C118.45 326.04 118.77 326.386 119.179 326.625C119.588 326.86 120.063 326.977 120.605 326.977C120.957 326.977 121.276 326.928 121.56 326.83C121.848 326.727 122.096 326.576 122.304 326.375C122.512 326.17 122.673 325.917 122.787 325.614L124.082 325.977C123.946 326.417 123.717 326.803 123.395 327.136C123.073 327.466 122.675 327.723 122.202 327.909C121.728 328.091 121.196 328.182 120.605 328.182ZM132.44 321.227L131.236 321.568C131.16 321.367 131.048 321.172 130.901 320.983C130.757 320.79 130.56 320.631 130.31 320.506C130.06 320.381 129.74 320.318 129.349 320.318C128.815 320.318 128.37 320.441 128.014 320.688C127.662 320.93 127.486 321.239 127.486 321.614C127.486 321.947 127.607 322.21 127.849 322.403C128.092 322.597 128.471 322.758 128.986 322.886L130.281 323.205C131.062 323.394 131.643 323.684 132.026 324.074C132.408 324.46 132.599 324.958 132.599 325.568C132.599 326.068 132.455 326.515 132.168 326.909C131.884 327.303 131.486 327.614 130.974 327.841C130.463 328.068 129.868 328.182 129.19 328.182C128.3 328.182 127.563 327.989 126.98 327.602C126.397 327.216 126.027 326.652 125.872 325.909L127.145 325.591C127.266 326.061 127.495 326.413 127.832 326.648C128.173 326.883 128.618 327 129.168 327C129.793 327 130.289 326.867 130.656 326.602C131.027 326.333 131.213 326.011 131.213 325.636C131.213 325.333 131.107 325.08 130.895 324.875C130.683 324.667 130.357 324.511 129.918 324.409L128.463 324.068C127.664 323.879 127.077 323.585 126.702 323.188C126.33 322.786 126.145 322.284 126.145 321.682C126.145 321.189 126.283 320.754 126.56 320.375C126.84 319.996 127.221 319.699 127.702 319.483C128.187 319.267 128.736 319.159 129.349 319.159C130.213 319.159 130.891 319.348 131.384 319.727C131.88 320.106 132.232 320.606 132.44 321.227ZM140.8 321.227L139.595 321.568C139.519 321.367 139.408 321.172 139.26 320.983C139.116 320.79 138.919 320.631 138.669 320.506C138.419 320.381 138.099 320.318 137.709 320.318C137.175 320.318 136.73 320.441 136.374 320.688C136.021 320.93 135.845 321.239 135.845 321.614C135.845 321.947 135.966 322.21 136.209 322.403C136.451 322.597 136.83 322.758 137.345 322.886L138.641 323.205C139.421 323.394 140.002 323.684 140.385 324.074C140.768 324.46 140.959 324.958 140.959 325.568C140.959 326.068 140.815 326.515 140.527 326.909C140.243 327.303 139.845 327.614 139.334 327.841C138.822 328.068 138.228 328.182 137.55 328.182C136.66 328.182 135.923 327.989 135.339 327.602C134.756 327.216 134.387 326.652 134.232 325.909L135.504 325.591C135.625 326.061 135.855 326.413 136.192 326.648C136.533 326.883 136.978 327 137.527 327C138.152 327 138.648 326.867 139.016 326.602C139.387 326.333 139.572 326.011 139.572 325.636C139.572 325.333 139.466 325.08 139.254 324.875C139.042 324.667 138.716 324.511 138.277 324.409L136.822 324.068C136.023 323.879 135.436 323.585 135.061 323.188C134.69 322.786 134.504 322.284 134.504 321.682C134.504 321.189 134.643 320.754 134.919 320.375C135.199 319.996 135.58 319.699 136.061 319.483C136.546 319.267 137.095 319.159 137.709 319.159C138.572 319.159 139.25 319.348 139.743 319.727C140.239 320.106 140.591 320.606 140.8 321.227ZM145.545 328.205C144.992 328.205 144.491 328.1 144.04 327.892C143.589 327.68 143.231 327.375 142.966 326.977C142.701 326.576 142.568 326.091 142.568 325.523C142.568 325.023 142.667 324.617 142.864 324.307C143.061 323.992 143.324 323.746 143.653 323.568C143.983 323.39 144.347 323.258 144.744 323.17C145.146 323.08 145.549 323.008 145.955 322.955C146.485 322.886 146.915 322.835 147.244 322.801C147.578 322.763 147.82 322.701 147.972 322.614C148.127 322.527 148.205 322.375 148.205 322.159V322.114C148.205 321.553 148.051 321.117 147.744 320.807C147.441 320.496 146.981 320.341 146.364 320.341C145.723 320.341 145.222 320.481 144.858 320.761C144.494 321.042 144.239 321.341 144.091 321.659L142.818 321.205C143.045 320.674 143.348 320.261 143.727 319.966C144.11 319.667 144.527 319.458 144.977 319.341C145.432 319.22 145.879 319.159 146.318 319.159C146.598 319.159 146.92 319.193 147.284 319.261C147.652 319.326 148.006 319.46 148.347 319.665C148.691 319.869 148.977 320.178 149.205 320.591C149.432 321.004 149.545 321.557 149.545 322.25V328H148.205V326.818H148.136C148.045 327.008 147.894 327.21 147.682 327.426C147.47 327.642 147.188 327.826 146.835 327.977C146.483 328.129 146.053 328.205 145.545 328.205ZM145.75 327C146.28 327 146.727 326.896 147.091 326.688C147.458 326.479 147.735 326.21 147.92 325.881C148.11 325.551 148.205 325.205 148.205 324.841V323.614C148.148 323.682 148.023 323.744 147.83 323.801C147.64 323.854 147.42 323.902 147.17 323.943C146.924 323.981 146.684 324.015 146.449 324.045C146.218 324.072 146.03 324.095 145.886 324.114C145.538 324.159 145.212 324.233 144.909 324.335C144.61 324.434 144.367 324.583 144.182 324.784C144 324.981 143.909 325.25 143.909 325.591C143.909 326.057 144.081 326.409 144.426 326.648C144.775 326.883 145.216 327 145.75 327ZM155.516 331.455C154.868 331.455 154.311 331.371 153.845 331.205C153.379 331.042 152.991 330.826 152.68 330.557C152.374 330.292 152.129 330.008 151.947 329.705L153.016 328.955C153.137 329.114 153.29 329.295 153.476 329.5C153.661 329.708 153.915 329.888 154.237 330.04C154.563 330.195 154.989 330.273 155.516 330.273C156.22 330.273 156.802 330.102 157.26 329.761C157.718 329.42 157.947 328.886 157.947 328.159V326.386H157.834C157.735 326.545 157.595 326.742 157.413 326.977C157.235 327.208 156.978 327.415 156.641 327.597C156.307 327.775 155.857 327.864 155.288 327.864C154.584 327.864 153.951 327.697 153.391 327.364C152.834 327.03 152.393 326.545 152.067 325.909C151.745 325.273 151.584 324.5 151.584 323.591C151.584 322.697 151.741 321.919 152.055 321.256C152.37 320.589 152.807 320.074 153.368 319.71C153.929 319.343 154.576 319.159 155.311 319.159C155.879 319.159 156.33 319.254 156.663 319.443C157 319.629 157.258 319.841 157.436 320.08C157.618 320.314 157.758 320.508 157.857 320.659H157.993V319.273H159.288V328.25C159.288 329 159.118 329.61 158.777 330.08C158.44 330.553 157.985 330.9 157.413 331.119C156.845 331.343 156.213 331.455 155.516 331.455ZM155.47 326.659C156.008 326.659 156.463 326.536 156.834 326.29C157.205 326.044 157.487 325.689 157.68 325.227C157.874 324.765 157.97 324.212 157.97 323.568C157.97 322.939 157.875 322.384 157.686 321.903C157.497 321.422 157.216 321.045 156.845 320.773C156.474 320.5 156.016 320.364 155.47 320.364C154.902 320.364 154.429 320.508 154.05 320.795C153.675 321.083 153.393 321.47 153.203 321.955C153.018 322.439 152.925 322.977 152.925 323.568C152.925 324.174 153.019 324.71 153.209 325.176C153.402 325.638 153.686 326.002 154.061 326.267C154.44 326.528 154.91 326.659 155.47 326.659ZM165.402 328.182C164.561 328.182 163.836 327.996 163.226 327.625C162.62 327.25 162.152 326.727 161.822 326.057C161.497 325.383 161.334 324.598 161.334 323.705C161.334 322.811 161.497 322.023 161.822 321.341C162.152 320.655 162.61 320.121 163.197 319.739C163.788 319.352 164.478 319.159 165.266 319.159C165.72 319.159 166.169 319.235 166.612 319.386C167.055 319.538 167.459 319.784 167.822 320.125C168.186 320.462 168.476 320.909 168.692 321.466C168.908 322.023 169.016 322.708 169.016 323.523V324.091H162.288V322.932H167.652C167.652 322.439 167.554 322 167.357 321.614C167.163 321.227 166.887 320.922 166.527 320.699C166.171 320.475 165.75 320.364 165.266 320.364C164.732 320.364 164.269 320.496 163.879 320.761C163.493 321.023 163.196 321.364 162.987 321.784C162.779 322.205 162.675 322.655 162.675 323.136V323.909C162.675 324.568 162.788 325.127 163.016 325.585C163.247 326.04 163.567 326.386 163.976 326.625C164.385 326.86 164.86 326.977 165.402 326.977C165.754 326.977 166.072 326.928 166.357 326.83C166.644 326.727 166.893 326.576 167.101 326.375C167.309 326.17 167.47 325.917 167.584 325.614L168.879 325.977C168.743 326.417 168.514 326.803 168.192 327.136C167.87 327.466 167.472 327.723 166.999 327.909C166.525 328.091 165.993 328.182 165.402 328.182Z" fill="#A7B4C3"/>
<path d="M349.62 17V4.58H351.132V15.632H357.18V17H349.62ZM361.269 17C359.457 17 358.551 16.094 358.551 14.282C358.551 12.47 359.457 11.564 361.269 11.564H364.563V10.16C364.563 9.32 364.143 8.9 363.303 8.9H359.451V8.18L360.171 7.64H363.303C365.103 7.64 366.003 8.54 366.003 10.34V17H361.269ZM359.991 14.48C359.991 15.32 360.411 15.74 361.251 15.74H364.563V12.734H361.251C360.411 12.734 359.991 13.154 359.991 13.994V14.48ZM368.451 16.46V15.74H372.609C373.437 15.74 373.851 15.32 373.851 14.48C373.851 13.628 373.521 13.148 372.861 13.04L370.719 12.68C369.207 12.428 368.451 11.606 368.451 10.214C368.451 8.498 369.351 7.64 371.151 7.64H374.157L374.877 8.18V8.9H371.133C370.293 8.9 369.873 9.32 369.873 10.16C369.873 10.916 370.227 11.354 370.935 11.474L373.077 11.834C374.565 12.074 375.309 12.932 375.309 14.408C375.309 16.136 374.397 17 372.573 17H369.171L368.451 16.46ZM377.739 14.3V4.58H379.179V7.64H382.599V8.9H379.179V14.48C379.179 15.32 379.599 15.74 380.439 15.74H382.779V16.46L382.059 17H380.439C378.639 17 377.739 16.1 377.739 14.3ZM389.364 17V4.58H391.038L397.572 14.66V4.58H399.084V17H397.41L390.876 6.92V17H389.364ZM404.353 17C402.541 17 401.635 16.094 401.635 14.282C401.635 12.47 402.541 11.564 404.353 11.564H407.647V10.16C407.647 9.32 407.227 8.9 406.387 8.9H402.535V8.18L403.255 7.64H406.387C408.187 7.64 409.087 8.54 409.087 10.34V17H404.353ZM403.075 14.48C403.075 15.32 403.495 15.74 404.335 15.74H407.647V12.734H404.335C403.495 12.734 403.075 13.154 403.075 13.994V14.48ZM411.895 17V7.64H422.515C424.315 7.64 425.215 8.54 425.215 10.34V17H423.775V10.16C423.775 9.32 423.355 8.9 422.515 8.9H419.275V17H417.835V8.9H413.335V17H411.895ZM427.888 14.3V10.34C427.888 8.54 428.788 7.64 430.588 7.64H432.928C434.728 7.64 435.628 8.54 435.628 10.34V12.878H429.328V14.48C429.328 15.32 429.748 15.74 430.588 15.74H435.268V16.46L434.548 17H430.588C428.788 17 427.888 16.1 427.888 14.3ZM429.328 11.708H434.188V10.16C434.188 9.32 433.768 8.9 432.928 8.9H430.588C429.748 8.9 429.328 9.32 429.328 10.16V11.708ZM437.49 7.712L437.832 6.686L440.676 7.55V4.58H441.828V7.55L444.672 6.686L445.014 7.712L442.206 8.666L443.916 11.096L443.034 11.726L441.252 9.386L439.47 11.726L438.588 11.096L440.298 8.666L437.49 7.712Z" fill="white"/>
<path d="M348.537 94.5L352.466 39.5H671.463L667.534 94.5H348.537Z" stroke="#173352"/>
<path d="M369.409 73V61.3636H370.818V71.75H376.227V73H369.409ZM380.795 73.2045C380.242 73.2045 379.741 73.1004 379.29 72.892C378.839 72.6799 378.481 72.375 378.216 71.9773C377.951 71.5758 377.818 71.0909 377.818 70.5227C377.818 70.0227 377.917 69.6174 378.114 69.3068C378.311 68.9924 378.574 68.7462 378.903 68.5682C379.233 68.3902 379.597 68.2576 379.994 68.1705C380.396 68.0795 380.799 68.0076 381.205 67.9545C381.735 67.8864 382.165 67.8352 382.494 67.8011C382.828 67.7633 383.07 67.7008 383.222 67.6136C383.377 67.5265 383.455 67.375 383.455 67.1591V67.1136C383.455 66.553 383.301 66.1174 382.994 65.8068C382.691 65.4962 382.231 65.3409 381.614 65.3409C380.973 65.3409 380.472 65.4811 380.108 65.7614C379.744 66.0417 379.489 66.3409 379.341 66.6591L378.068 66.2045C378.295 65.6742 378.598 65.2614 378.977 64.9659C379.36 64.6667 379.777 64.4583 380.227 64.3409C380.682 64.2197 381.129 64.1591 381.568 64.1591C381.848 64.1591 382.17 64.1932 382.534 64.2614C382.902 64.3258 383.256 64.4602 383.597 64.6648C383.941 64.8693 384.227 65.178 384.455 65.5909C384.682 66.0038 384.795 66.5568 384.795 67.25V73H383.455V71.8182H383.386C383.295 72.0076 383.144 72.2102 382.932 72.4261C382.72 72.642 382.438 72.8258 382.085 72.9773C381.733 73.1288 381.303 73.2045 380.795 73.2045ZM381 72C381.53 72 381.977 71.8958 382.341 71.6875C382.708 71.4792 382.985 71.2102 383.17 70.8807C383.36 70.5511 383.455 70.2045 383.455 69.8409V68.6136C383.398 68.6818 383.273 68.7443 383.08 68.8011C382.89 68.8542 382.67 68.9015 382.42 68.9432C382.174 68.9811 381.934 69.0152 381.699 69.0455C381.468 69.072 381.28 69.0947 381.136 69.1136C380.788 69.1591 380.462 69.233 380.159 69.3352C379.86 69.4337 379.617 69.5833 379.432 69.7841C379.25 69.9811 379.159 70.25 379.159 70.5909C379.159 71.0568 379.331 71.4091 379.676 71.6477C380.025 71.8826 380.466 72 381 72ZM393.425 66.2273L392.22 66.5682C392.144 66.3674 392.033 66.1723 391.885 65.983C391.741 65.7898 391.544 65.6307 391.294 65.5057C391.044 65.3807 390.724 65.3182 390.334 65.3182C389.8 65.3182 389.355 65.4413 388.999 65.6875C388.646 65.9299 388.47 66.2386 388.47 66.6136C388.47 66.947 388.591 67.2102 388.834 67.4034C389.076 67.5966 389.455 67.7576 389.97 67.8864L391.266 68.2045C392.046 68.3939 392.627 68.6837 393.01 69.0739C393.393 69.4602 393.584 69.9583 393.584 70.5682C393.584 71.0682 393.44 71.5152 393.152 71.9091C392.868 72.303 392.47 72.6136 391.959 72.8409C391.447 73.0682 390.853 73.1818 390.175 73.1818C389.285 73.1818 388.548 72.9886 387.964 72.6023C387.381 72.2159 387.012 71.6515 386.857 70.9091L388.129 70.5909C388.25 71.0606 388.48 71.4129 388.817 71.6477C389.158 71.8826 389.603 72 390.152 72C390.777 72 391.273 71.8674 391.641 71.6023C392.012 71.3333 392.197 71.0114 392.197 70.6364C392.197 70.3333 392.091 70.0795 391.879 69.875C391.667 69.6667 391.341 69.5114 390.902 69.4091L389.447 69.0682C388.648 68.8788 388.061 68.5852 387.686 68.1875C387.315 67.786 387.129 67.2841 387.129 66.6818C387.129 66.1894 387.268 65.7538 387.544 65.375C387.824 64.9962 388.205 64.6989 388.686 64.483C389.171 64.267 389.72 64.1591 390.334 64.1591C391.197 64.1591 391.875 64.3485 392.368 64.7273C392.864 65.1061 393.216 65.6061 393.425 66.2273ZM399.398 64.2727V65.4091H394.875V64.2727H399.398ZM396.193 62.1818H397.534V70.5C397.534 70.8788 397.589 71.1629 397.699 71.3523C397.813 71.5379 397.956 71.6629 398.131 71.7273C398.309 71.7879 398.496 71.8182 398.693 71.8182C398.841 71.8182 398.962 71.8106 399.057 71.7955C399.152 71.7765 399.227 71.7614 399.284 71.75L399.557 72.9545C399.466 72.9886 399.339 73.0227 399.176 73.0568C399.013 73.0947 398.807 73.1136 398.557 73.1136C398.178 73.1136 397.807 73.0322 397.443 72.8693C397.083 72.7064 396.784 72.4583 396.545 72.125C396.311 71.7917 396.193 71.3712 396.193 70.8636V62.1818ZM415.324 61.3636V73H413.96L407.619 63.8636H407.506V73H406.097V61.3636H407.46L413.824 70.5227H413.938V61.3636H415.324ZM420.53 73.2045C419.977 73.2045 419.475 73.1004 419.024 72.892C418.573 72.6799 418.215 72.375 417.95 71.9773C417.685 71.5758 417.553 71.0909 417.553 70.5227C417.553 70.0227 417.651 69.6174 417.848 69.3068C418.045 68.9924 418.308 68.7462 418.638 68.5682C418.967 68.3902 419.331 68.2576 419.729 68.1705C420.13 68.0795 420.534 68.0076 420.939 67.9545C421.469 67.8864 421.899 67.8352 422.229 67.8011C422.562 67.7633 422.804 67.7008 422.956 67.6136C423.111 67.5265 423.189 67.375 423.189 67.1591V67.1136C423.189 66.553 423.036 66.1174 422.729 65.8068C422.426 65.4962 421.965 65.3409 421.348 65.3409C420.708 65.3409 420.206 65.4811 419.842 65.7614C419.479 66.0417 419.223 66.3409 419.075 66.6591L417.803 66.2045C418.03 65.6742 418.333 65.2614 418.712 64.9659C419.094 64.6667 419.511 64.4583 419.962 64.3409C420.416 64.2197 420.863 64.1591 421.303 64.1591C421.583 64.1591 421.905 64.1932 422.268 64.2614C422.636 64.3258 422.99 64.4602 423.331 64.6648C423.676 64.8693 423.962 65.178 424.189 65.5909C424.416 66.0038 424.53 66.5568 424.53 67.25V73H423.189V71.8182H423.121C423.03 72.0076 422.878 72.2102 422.666 72.4261C422.454 72.642 422.172 72.8258 421.82 72.9773C421.467 73.1288 421.037 73.2045 420.53 73.2045ZM420.734 72C421.265 72 421.712 71.8958 422.075 71.6875C422.443 71.4792 422.719 71.2102 422.905 70.8807C423.094 70.5511 423.189 70.2045 423.189 69.8409V68.6136C423.132 68.6818 423.007 68.7443 422.814 68.8011C422.625 68.8542 422.405 68.9015 422.155 68.9432C421.909 68.9811 421.668 69.0152 421.433 69.0455C421.202 69.072 421.015 69.0947 420.871 69.1136C420.522 69.1591 420.196 69.233 419.893 69.3352C419.594 69.4337 419.352 69.5833 419.166 69.7841C418.984 69.9811 418.893 70.25 418.893 70.5909C418.893 71.0568 419.066 71.4091 419.411 71.6477C419.759 71.8826 420.2 72 420.734 72ZM426.977 73V64.2727H428.273V65.6364H428.386C428.568 65.1705 428.862 64.8087 429.267 64.5511C429.672 64.2898 430.159 64.1591 430.727 64.1591C431.303 64.1591 431.782 64.2898 432.165 64.5511C432.551 64.8087 432.852 65.1705 433.068 65.6364H433.159C433.383 65.1856 433.718 64.8277 434.165 64.5625C434.612 64.2936 435.148 64.1591 435.773 64.1591C436.553 64.1591 437.191 64.4034 437.688 64.892C438.184 65.3769 438.432 66.1326 438.432 67.1591V73H437.091V67.1591C437.091 66.5152 436.915 66.0549 436.562 65.7784C436.21 65.5019 435.795 65.3636 435.318 65.3636C434.705 65.3636 434.229 65.5492 433.892 65.9205C433.555 66.2879 433.386 66.7538 433.386 67.3182V73H432.023V67.0227C432.023 66.5265 431.862 66.1269 431.54 65.8239C431.218 65.517 430.803 65.3636 430.295 65.3636C429.947 65.3636 429.621 65.4564 429.318 65.642C429.019 65.8277 428.777 66.0852 428.591 66.4148C428.409 66.7405 428.318 67.1174 428.318 67.5455V73H426.977ZM444.543 73.1818C443.702 73.1818 442.976 72.9962 442.366 72.625C441.76 72.25 441.293 71.7273 440.963 71.0568C440.637 70.3826 440.474 69.5985 440.474 68.7045C440.474 67.8106 440.637 67.0227 440.963 66.3409C441.293 65.6553 441.751 65.1212 442.338 64.7386C442.929 64.3523 443.618 64.1591 444.406 64.1591C444.861 64.1591 445.31 64.2348 445.753 64.3864C446.196 64.5379 446.599 64.7841 446.963 65.125C447.327 65.4621 447.616 65.9091 447.832 66.4659C448.048 67.0227 448.156 67.7083 448.156 68.5227V69.0909H441.429V67.9318H446.793C446.793 67.4394 446.694 67 446.497 66.6136C446.304 66.2273 446.027 65.9223 445.668 65.6989C445.312 65.4754 444.891 65.3636 444.406 65.3636C443.872 65.3636 443.41 65.4962 443.02 65.7614C442.634 66.0227 442.336 66.3636 442.128 66.7841C441.92 67.2045 441.815 67.6553 441.815 68.1364V68.9091C441.815 69.5682 441.929 70.1269 442.156 70.5852C442.387 71.0398 442.707 71.3864 443.116 71.625C443.526 71.8598 444.001 71.9773 444.543 71.9773C444.895 71.9773 445.213 71.928 445.497 71.8295C445.785 71.7273 446.033 71.5758 446.241 71.375C446.45 71.1705 446.611 70.9167 446.724 70.6136L448.02 70.9773C447.884 71.4167 447.654 71.803 447.332 72.1364C447.01 72.4659 446.613 72.7235 446.139 72.9091C445.666 73.0909 445.134 73.1818 444.543 73.1818Z" fill="#A7B4C3"/>
<path d="M349.62 144V131.58H351.132V136.8H357.468V131.58H358.98V144H357.468V138.168H351.132V144H349.62ZM361.9 141.3V137.34C361.9 135.54 362.8 134.64 364.6 134.64H367.12C368.92 134.64 369.82 135.54 369.82 137.34V141.3C369.82 143.1 368.92 144 367.12 144H364.6C362.8 144 361.9 143.1 361.9 141.3ZM363.34 141.48C363.34 142.32 363.76 142.74 364.6 142.74H367.12C367.96 142.74 368.38 142.32 368.38 141.48V137.16C368.38 136.32 367.96 135.9 367.12 135.9H364.6C363.76 135.9 363.34 136.32 363.34 137.16V141.48ZM371.547 134.892L371.727 134.64H372.915L374.823 142.74H375.075L377.361 134.64H378.999L381.285 142.74H381.537L383.463 134.64H384.633L384.813 134.892L382.617 144H380.313L378.171 136.296L376.047 144H373.743L371.547 134.892ZM390.868 141.3V137.34C390.868 135.54 391.768 134.64 393.568 134.64H397.168V130.68H398.608V144H393.568C391.768 144 390.868 143.1 390.868 141.3ZM392.308 141.48C392.308 142.32 392.728 142.74 393.568 142.74H397.168V135.9H393.568C392.728 135.9 392.308 136.32 392.308 137.16V141.48ZM401.417 132.894V131.202H403.001V132.894H401.417ZM401.489 144V134.64H402.929V144H401.489ZM405.669 141.3V137.34C405.669 135.54 406.569 134.64 408.369 134.64H411.969V130.68H413.409V144H408.369C406.569 144 405.669 143.1 405.669 141.3ZM407.109 141.48C407.109 142.32 407.529 142.74 408.369 142.74H411.969V135.9H408.369C407.529 135.9 407.109 136.32 407.109 137.16V141.48ZM419.534 134.892L419.696 134.64H420.938L423.674 142.74H424.034L426.77 134.64H428.012L428.174 134.892L423.782 147.6H422.54L422.378 147.348L423.584 144H422.684L419.534 134.892ZM429.821 141.3V137.34C429.821 135.54 430.721 134.64 432.521 134.64H435.041C436.841 134.64 437.741 135.54 437.741 137.34V141.3C437.741 143.1 436.841 144 435.041 144H432.521C430.721 144 429.821 143.1 429.821 141.3ZM431.261 141.48C431.261 142.32 431.681 142.74 432.521 142.74H435.041C435.881 142.74 436.301 142.32 436.301 141.48V137.16C436.301 136.32 435.881 135.9 435.041 135.9H432.521C431.681 135.9 431.261 136.32 431.261 137.16V141.48ZM440.405 141.3V134.64H441.845V141.48C441.845 142.32 442.265 142.74 443.105 142.74H446.705V134.64H448.145V144H443.105C441.305 144 440.405 143.1 440.405 141.3ZM455.348 144V130.68H456.788V134.64H460.388C462.188 134.64 463.088 135.54 463.088 137.34V144H461.648V137.16C461.648 136.32 461.228 135.9 460.388 135.9H456.788V144H455.348ZM465.751 141.3V137.34C465.751 135.54 466.651 134.64 468.451 134.64H470.791C472.591 134.64 473.491 135.54 473.491 137.34V139.878H467.191V141.48C467.191 142.32 467.611 142.74 468.451 142.74H473.131V143.46L472.411 144H468.451C466.651 144 465.751 143.1 465.751 141.3ZM467.191 138.708H472.051V137.16C472.051 136.32 471.631 135.9 470.791 135.9H468.451C467.611 135.9 467.191 136.32 467.191 137.16V138.708ZM478.445 144C476.633 144 475.727 143.094 475.727 141.282C475.727 139.47 476.633 138.564 478.445 138.564H481.739V137.16C481.739 136.32 481.319 135.9 480.479 135.9H476.627V135.18L477.347 134.64H480.479C482.279 134.64 483.179 135.54 483.179 137.34V144H478.445ZM477.167 141.48C477.167 142.32 477.587 142.74 478.427 142.74H481.739V139.734H478.427C477.587 139.734 477.167 140.154 477.167 140.994V141.48ZM485.915 144V135.72C486.335 135 487.115 134.64 488.255 134.64H490.055L490.775 135.18V135.9H488.453C487.949 135.9 487.583 136.038 487.355 136.314V144H485.915ZM499.222 144C497.41 144 496.504 143.094 496.504 141.282C496.504 139.47 497.41 138.564 499.222 138.564H502.516V137.16C502.516 136.32 502.096 135.9 501.256 135.9H497.404V135.18L498.124 134.64H501.256C503.056 134.64 503.956 135.54 503.956 137.34V144H499.222ZM497.944 141.48C497.944 142.32 498.364 142.74 499.204 142.74H502.516V139.734H499.204C498.364 139.734 497.944 140.154 497.944 140.994V141.48ZM506.764 144V130.68H508.204V134.64H511.804C513.604 134.64 514.504 135.54 514.504 137.34V141.3C514.504 143.1 513.604 144 511.804 144H506.764ZM508.204 142.74H511.804C512.644 142.74 513.064 142.32 513.064 141.48V137.16C513.064 136.32 512.644 135.9 511.804 135.9H508.204V142.74ZM517.097 141.3V137.34C517.097 135.54 517.997 134.64 519.797 134.64H522.317C524.117 134.64 525.017 135.54 525.017 137.34V141.3C525.017 143.1 524.117 144 522.317 144H519.797C517.997 144 517.097 143.1 517.097 141.3ZM518.537 141.48C518.537 142.32 518.957 142.74 519.797 142.74H522.317C523.157 142.74 523.577 142.32 523.577 141.48V137.16C523.577 136.32 523.157 135.9 522.317 135.9H519.797C518.957 135.9 518.537 136.32 518.537 137.16V141.48ZM527.681 141.3V134.64H529.121V141.48C529.121 142.32 529.541 142.74 530.381 142.74H533.981V134.64H535.421V144H530.381C528.581 144 527.681 143.1 527.681 141.3ZM538.227 141.3V131.58H539.667V134.64H543.087V135.9H539.667V141.48C539.667 142.32 540.087 142.74 540.927 142.74H543.267V143.46L542.547 144H540.927C539.127 144 538.227 143.1 538.227 141.3ZM549.6 141.3V134.64H551.04V141.48C551.04 142.32 551.46 142.74 552.3 142.74H555.9V134.64H557.34V144H552.3C550.5 144 549.6 143.1 549.6 141.3ZM559.859 143.46V142.74H564.017C564.845 142.74 565.259 142.32 565.259 141.48C565.259 140.628 564.929 140.148 564.269 140.04L562.127 139.68C560.615 139.428 559.859 138.606 559.859 137.214C559.859 135.498 560.759 134.64 562.559 134.64H565.565L566.285 135.18V135.9H562.541C561.701 135.9 561.281 136.32 561.281 137.16C561.281 137.916 561.635 138.354 562.343 138.474L564.485 138.834C565.973 139.074 566.717 139.932 566.717 141.408C566.717 143.136 565.805 144 563.981 144H560.579L559.859 143.46ZM568.324 132.948V132.21L569.134 131.58H572.95C574.786 131.58 575.704 132.498 575.704 134.334V135.9C575.704 137.772 574.804 138.708 573.004 138.708H572.176V140.22H570.664V137.34H572.968C573.784 137.34 574.192 136.932 574.192 136.116V134.172C574.192 133.356 573.784 132.948 572.968 132.948H568.324ZM570.538 144V142.056H572.302V144H570.538Z" fill="white"/>
<path d="M348.537 221.5L352.466 166.5H671.463L667.534 221.5H348.537Z" stroke="#173352"/>
<path d="M375.773 190.273C375.705 189.697 375.428 189.25 374.943 188.932C374.458 188.614 373.864 188.455 373.159 188.455C372.644 188.455 372.193 188.538 371.807 188.705C371.424 188.871 371.125 189.1 370.909 189.392C370.697 189.684 370.591 190.015 370.591 190.386C370.591 190.697 370.665 190.964 370.812 191.188C370.964 191.407 371.157 191.591 371.392 191.739C371.627 191.883 371.873 192.002 372.131 192.097C372.388 192.187 372.625 192.261 372.841 192.318L374.023 192.636C374.326 192.716 374.663 192.826 375.034 192.966C375.409 193.106 375.767 193.297 376.108 193.54C376.453 193.778 376.737 194.085 376.96 194.46C377.184 194.835 377.295 195.295 377.295 195.841C377.295 196.47 377.131 197.038 376.801 197.545C376.475 198.053 375.998 198.456 375.369 198.756C374.744 199.055 373.985 199.205 373.091 199.205C372.258 199.205 371.536 199.07 370.926 198.801C370.32 198.532 369.843 198.157 369.494 197.676C369.15 197.195 368.955 196.636 368.909 196H370.364C370.402 196.439 370.549 196.803 370.807 197.091C371.068 197.375 371.398 197.587 371.795 197.727C372.197 197.864 372.629 197.932 373.091 197.932C373.629 197.932 374.112 197.845 374.54 197.67C374.968 197.492 375.307 197.246 375.557 196.932C375.807 196.614 375.932 196.242 375.932 195.818C375.932 195.432 375.824 195.117 375.608 194.875C375.392 194.633 375.108 194.436 374.756 194.284C374.403 194.133 374.023 194 373.614 193.886L372.182 193.477C371.273 193.216 370.553 192.843 370.023 192.358C369.492 191.873 369.227 191.239 369.227 190.455C369.227 189.803 369.403 189.235 369.756 188.75C370.112 188.261 370.589 187.883 371.188 187.614C371.79 187.341 372.462 187.205 373.205 187.205C373.955 187.205 374.621 187.339 375.205 187.608C375.788 187.873 376.25 188.237 376.591 188.699C376.936 189.161 377.117 189.686 377.136 190.273H375.773ZM383.089 199.182C382.249 199.182 381.523 198.996 380.913 198.625C380.307 198.25 379.839 197.727 379.51 197.057C379.184 196.383 379.021 195.598 379.021 194.705C379.021 193.811 379.184 193.023 379.51 192.341C379.839 191.655 380.298 191.121 380.885 190.739C381.476 190.352 382.165 190.159 382.953 190.159C383.408 190.159 383.857 190.235 384.3 190.386C384.743 190.538 385.146 190.784 385.51 191.125C385.874 191.462 386.163 191.909 386.379 192.466C386.595 193.023 386.703 193.708 386.703 194.523V195.091H379.976V193.932H385.339C385.339 193.439 385.241 193 385.044 192.614C384.851 192.227 384.574 191.922 384.214 191.699C383.858 191.475 383.438 191.364 382.953 191.364C382.419 191.364 381.957 191.496 381.567 191.761C381.18 192.023 380.883 192.364 380.675 192.784C380.466 193.205 380.362 193.655 380.362 194.136V194.909C380.362 195.568 380.476 196.127 380.703 196.585C380.934 197.04 381.254 197.386 381.663 197.625C382.072 197.86 382.548 197.977 383.089 197.977C383.442 197.977 383.76 197.928 384.044 197.83C384.332 197.727 384.58 197.576 384.788 197.375C384.997 197.17 385.158 196.917 385.271 196.614L386.567 196.977C386.43 197.417 386.201 197.803 385.879 198.136C385.557 198.466 385.16 198.723 384.686 198.909C384.213 199.091 383.68 199.182 383.089 199.182ZM390.084 187.364V199H388.743V187.364H390.084ZM396.199 199.182C395.358 199.182 394.633 198.996 394.023 198.625C393.417 198.25 392.949 197.727 392.619 197.057C392.294 196.383 392.131 195.598 392.131 194.705C392.131 193.811 392.294 193.023 392.619 192.341C392.949 191.655 393.407 191.121 393.994 190.739C394.585 190.352 395.275 190.159 396.062 190.159C396.517 190.159 396.966 190.235 397.409 190.386C397.852 190.538 398.256 190.784 398.619 191.125C398.983 191.462 399.273 191.909 399.489 192.466C399.705 193.023 399.812 193.708 399.812 194.523V195.091H393.085V193.932H398.449C398.449 193.439 398.35 193 398.153 192.614C397.96 192.227 397.684 191.922 397.324 191.699C396.968 191.475 396.547 191.364 396.062 191.364C395.528 191.364 395.066 191.496 394.676 191.761C394.29 192.023 393.992 192.364 393.784 192.784C393.576 193.205 393.472 193.655 393.472 194.136V194.909C393.472 195.568 393.585 196.127 393.812 196.585C394.044 197.04 394.364 197.386 394.773 197.625C395.182 197.86 395.657 197.977 396.199 197.977C396.551 197.977 396.869 197.928 397.153 197.83C397.441 197.727 397.689 197.576 397.898 197.375C398.106 197.17 398.267 196.917 398.381 196.614L399.676 196.977C399.54 197.417 399.311 197.803 398.989 198.136C398.667 198.466 398.269 198.723 397.795 198.909C397.322 199.091 396.79 199.182 396.199 199.182ZM405.398 199.182C404.58 199.182 403.875 198.989 403.284 198.602C402.693 198.216 402.239 197.684 401.92 197.006C401.602 196.328 401.443 195.553 401.443 194.682C401.443 193.795 401.606 193.013 401.932 192.335C402.261 191.653 402.72 191.121 403.307 190.739C403.898 190.352 404.587 190.159 405.375 190.159C405.989 190.159 406.542 190.273 407.034 190.5C407.527 190.727 407.93 191.045 408.244 191.455C408.559 191.864 408.754 192.341 408.83 192.886H407.489C407.386 192.489 407.159 192.136 406.807 191.83C406.458 191.519 405.989 191.364 405.398 191.364C404.875 191.364 404.417 191.5 404.023 191.773C403.633 192.042 403.328 192.422 403.108 192.915C402.892 193.403 402.784 193.977 402.784 194.636C402.784 195.311 402.89 195.898 403.102 196.398C403.318 196.898 403.621 197.286 404.011 197.562C404.405 197.839 404.867 197.977 405.398 197.977C405.746 197.977 406.062 197.917 406.347 197.795C406.631 197.674 406.871 197.5 407.068 197.273C407.265 197.045 407.405 196.773 407.489 196.455H408.83C408.754 196.97 408.566 197.434 408.267 197.847C407.972 198.256 407.58 198.581 407.091 198.824C406.606 199.062 406.042 199.182 405.398 199.182ZM414.585 190.273V191.409H410.062V190.273H414.585ZM411.381 188.182H412.722V196.5C412.722 196.879 412.777 197.163 412.886 197.352C413 197.538 413.144 197.663 413.318 197.727C413.496 197.788 413.684 197.818 413.881 197.818C414.028 197.818 414.15 197.811 414.244 197.795C414.339 197.777 414.415 197.761 414.472 197.75L414.744 198.955C414.653 198.989 414.527 199.023 414.364 199.057C414.201 199.095 413.994 199.114 413.744 199.114C413.366 199.114 412.994 199.032 412.631 198.869C412.271 198.706 411.972 198.458 411.733 198.125C411.498 197.792 411.381 197.371 411.381 196.864V188.182ZM424.648 199.182C423.86 199.182 423.169 198.994 422.574 198.619C421.983 198.244 421.521 197.72 421.188 197.045C420.858 196.371 420.693 195.583 420.693 194.682C420.693 193.773 420.858 192.979 421.188 192.301C421.521 191.623 421.983 191.097 422.574 190.722C423.169 190.347 423.86 190.159 424.648 190.159C425.436 190.159 426.125 190.347 426.716 190.722C427.311 191.097 427.773 191.623 428.102 192.301C428.436 192.979 428.602 193.773 428.602 194.682C428.602 195.583 428.436 196.371 428.102 197.045C427.773 197.72 427.311 198.244 426.716 198.619C426.125 198.994 425.436 199.182 424.648 199.182ZM424.648 197.977C425.246 197.977 425.739 197.824 426.125 197.517C426.511 197.21 426.797 196.807 426.983 196.307C427.169 195.807 427.261 195.265 427.261 194.682C427.261 194.098 427.169 193.555 426.983 193.051C426.797 192.547 426.511 192.14 426.125 191.83C425.739 191.519 425.246 191.364 424.648 191.364C424.049 191.364 423.557 191.519 423.17 191.83C422.784 192.14 422.498 192.547 422.312 193.051C422.127 193.555 422.034 194.098 422.034 194.682C422.034 195.265 422.127 195.807 422.312 196.307C422.498 196.807 422.784 197.21 423.17 197.517C423.557 197.824 424.049 197.977 424.648 197.977ZM430.649 202.273V190.273H431.945V191.659H432.104C432.202 191.508 432.339 191.314 432.513 191.08C432.691 190.841 432.945 190.629 433.274 190.443C433.607 190.254 434.058 190.159 434.626 190.159C435.361 190.159 436.009 190.343 436.57 190.71C437.13 191.078 437.568 191.598 437.882 192.273C438.196 192.947 438.354 193.742 438.354 194.659C438.354 195.583 438.196 196.384 437.882 197.062C437.568 197.737 437.132 198.259 436.575 198.631C436.018 198.998 435.376 199.182 434.649 199.182C434.089 199.182 433.64 199.089 433.303 198.903C432.965 198.714 432.706 198.5 432.524 198.261C432.342 198.019 432.202 197.818 432.104 197.659H431.99V202.273H430.649ZM431.967 194.636C431.967 195.295 432.064 195.877 432.257 196.381C432.45 196.881 432.732 197.273 433.104 197.557C433.475 197.837 433.929 197.977 434.467 197.977C435.028 197.977 435.496 197.83 435.871 197.534C436.25 197.235 436.534 196.833 436.723 196.33C436.916 195.822 437.013 195.258 437.013 194.636C437.013 194.023 436.918 193.47 436.729 192.977C436.543 192.481 436.261 192.089 435.882 191.801C435.507 191.509 435.036 191.364 434.467 191.364C433.922 191.364 433.464 191.502 433.092 191.778C432.721 192.051 432.441 192.434 432.251 192.926C432.062 193.415 431.967 193.985 431.967 194.636ZM444.195 190.273V191.409H439.672V190.273H444.195ZM440.99 188.182H442.331V196.5C442.331 196.879 442.386 197.163 442.496 197.352C442.609 197.538 442.753 197.663 442.928 197.727C443.106 197.788 443.293 197.818 443.49 197.818C443.638 197.818 443.759 197.811 443.854 197.795C443.948 197.777 444.024 197.761 444.081 197.75L444.354 198.955C444.263 198.989 444.136 199.023 443.973 199.057C443.81 199.095 443.604 199.114 443.354 199.114C442.975 199.114 442.604 199.032 442.24 198.869C441.88 198.706 441.581 198.458 441.342 198.125C441.107 197.792 440.99 197.371 440.99 196.864V188.182ZM446.212 199V190.273H447.553V199H446.212ZM446.893 188.818C446.632 188.818 446.407 188.729 446.217 188.551C446.032 188.373 445.939 188.159 445.939 187.909C445.939 187.659 446.032 187.445 446.217 187.267C446.407 187.089 446.632 187 446.893 187C447.155 187 447.378 187.089 447.564 187.267C447.753 187.445 447.848 187.659 447.848 187.909C447.848 188.159 447.753 188.373 447.564 188.551C447.378 188.729 447.155 188.818 446.893 188.818ZM453.554 199.182C452.766 199.182 452.075 198.994 451.48 198.619C450.889 198.244 450.427 197.72 450.094 197.045C449.764 196.371 449.599 195.583 449.599 194.682C449.599 193.773 449.764 192.979 450.094 192.301C450.427 191.623 450.889 191.097 451.48 190.722C452.075 190.347 452.766 190.159 453.554 190.159C454.342 190.159 455.031 190.347 455.622 190.722C456.217 191.097 456.679 191.623 457.009 192.301C457.342 192.979 457.509 193.773 457.509 194.682C457.509 195.583 457.342 196.371 457.009 197.045C456.679 197.72 456.217 198.244 455.622 198.619C455.031 198.994 454.342 199.182 453.554 199.182ZM453.554 197.977C454.152 197.977 454.645 197.824 455.031 197.517C455.418 197.21 455.704 196.807 455.889 196.307C456.075 195.807 456.168 195.265 456.168 194.682C456.168 194.098 456.075 193.555 455.889 193.051C455.704 192.547 455.418 192.14 455.031 191.83C454.645 191.519 454.152 191.364 453.554 191.364C452.955 191.364 452.463 191.519 452.077 191.83C451.69 192.14 451.404 192.547 451.219 193.051C451.033 193.555 450.94 194.098 450.94 194.682C450.94 195.265 451.033 195.807 451.219 196.307C451.404 196.807 451.69 197.21 452.077 197.517C452.463 197.824 452.955 197.977 453.554 197.977ZM460.896 193.75V199H459.555V190.273H460.851V191.636H460.964C461.169 191.193 461.48 190.837 461.896 190.568C462.313 190.295 462.851 190.159 463.51 190.159C464.101 190.159 464.618 190.28 465.061 190.523C465.504 190.761 465.849 191.125 466.095 191.614C466.341 192.098 466.464 192.712 466.464 193.455V199H465.124V193.545C465.124 192.86 464.946 192.326 464.589 191.943C464.233 191.557 463.745 191.364 463.124 191.364C462.696 191.364 462.313 191.456 461.976 191.642C461.643 191.828 461.379 192.098 461.186 192.455C460.993 192.811 460.896 193.242 460.896 193.75Z" fill="#A7B4C3"/>
<path d="M648.94 191.213L644.05 196.103C643.472 196.68 642.527 196.68 641.95 196.103L637.06 191.213" stroke="#A7B4C3" stroke-width="1.5" stroke-miterlimit="10" stroke-linecap="round" stroke-linejoin="round"/>
<path d="M10.7723 495H153L144.228 549H2L10.7723 495Z" fill="url(#paint0_linear_1_282)"/>
<path d="M48.3963 527.172V526.002H53.9583C54.4863 526.002 54.7503 525.744 54.7503 525.228V523.86C54.7503 523.404 54.5463 523.134 54.1383 523.05L50.4843 522.312C49.0923 522.036 48.3963 521.1 48.3963 519.504V518.514C48.3963 516.558 49.3743 515.58 51.3303 515.58H55.5243L56.5863 516.408V517.578H51.3843C50.8563 517.578 50.5923 517.836 50.5923 518.352V519.558C50.5923 520.014 50.7963 520.284 51.2043 520.368L54.8583 521.088C56.2503 521.376 56.9463 522.312 56.9463 523.896V525.066C56.9463 527.022 55.9683 528 54.0123 528H49.4583L48.3963 527.172ZM59.2135 525.156V518.55H61.3195V525.336C61.3195 525.888 61.5955 526.164 62.1475 526.164H65.1175V518.55H67.2235V528H62.0575C60.1615 528 59.2135 527.052 59.2135 525.156ZM69.9203 528V514.68H72.0263V518.55H75.1043C76.9883 518.55 77.9303 519.498 77.9303 521.394V525.156C77.9303 527.052 76.9883 528 75.1043 528H69.9203ZM72.0263 526.164H74.9963C75.5483 526.164 75.8243 525.888 75.8243 525.336V521.214C75.8243 520.662 75.5483 520.386 74.9963 520.386H72.0263V526.164ZM80.4848 528V518.55H91.2488C93.1328 518.55 94.0748 519.498 94.0748 521.394V528H91.9688V521.214C91.9688 520.662 91.6928 520.386 91.1408 520.386H88.3328V528H86.2268V520.386H82.5908V528H80.4848ZM96.6554 516.912V514.77H98.8694V516.912H96.6554ZM96.7094 528V518.55H98.8154V528H96.7094ZM101.436 525.156V515.58H103.542V518.55H106.764V520.386H103.542V525.336C103.542 525.888 103.818 526.164 104.37 526.164H106.944V527.298L105.99 528H104.28C102.384 528 101.436 527.052 101.436 525.156Z" fill="white"/>
<defs>
<linearGradient id="paint0_linear_1_282" x1="6.06539" y1="485.5" x2="32.8206" y2="626.64" gradientUnits="userSpaceOnUse">
<stop stop-color="#0A1F35"/>
<stop offset="1" stop-color="#040D17"/>
</linearGradient>
</defs>
</svg>
